<svg xmlns="http://www.w3.org/2000/svg" xmlns:xlink="http://www.w3.org/1999/xlink" width="541" zoomAndPan="magnify" viewBox="0 0 405.75 460.499986" height="614" preserveAspectRatio="xMidYMid meet" version="1.0"><defs><g/><clipPath id="ebdfee75ed"><path d="M 0.09375 0 L 405.40625 0 L 405.40625 460 L 0.09375 460 Z M 0.09375 0 " clip-rule="nonzero"/></clipPath><clipPath id="6afbc83a0e"><path d="M 79 170.269531 L 308 170.269531 L 308 364 L 79 364 Z M 79 170.269531 " clip-rule="nonzero"/></clipPath></defs><g clip-path="url(#ebdfee75ed)"><path fill="#ffffff" d="M 0.09375 0 L 405.65625 0 L 405.65625 467.03125 L 0.09375 467.03125 Z M 0.09375 0 " fill-opacity="1" fill-rule="nonzero"/><path fill="#ffffff" d="M 0.09375 0 L 405.65625 0 L 405.65625 460.285156 L 0.09375 460.285156 Z M 0.09375 0 " fill-opacity="1" fill-rule="nonzero"/><path fill="#d9d9d9" d="M 0.09375 0 L 405.65625 0 L 405.65625 460.285156 L 0.09375 460.285156 Z M 0.09375 0 " fill-opacity="1" fill-rule="nonzero"/></g><g clip-path="url(#6afbc83a0e)"><path fill="#d15124" d="M 259.457031 310.683594 L 258.726562 329.117188 L 258.25 341.140625 C 258.15625 342.503906 258.121094 343.902344 258.121094 345.296875 C 258.121094 346.914062 258.1875 348.535156 258.28125 350.152344 C 258.535156 353.863281 258.503906 356.527344 256.472656 357.097656 C 255.140625 357.511719 253.746094 357.734375 252.316406 357.734375 C 250.636719 357.734375 248.984375 357.417969 247.398438 356.84375 C 245.019531 355.796875 243.464844 353.449219 243.433594 350.816406 C 243.339844 346.820312 243.050781 339.714844 242.164062 332.101562 C 241.625 326.960938 240.703125 321.820312 239.402344 316.808594 L 239.371094 316.839844 L 239.339844 316.839844 C 232.234375 322.390625 228.523438 329.023438 226.679688 335.113281 L 226.617188 335.144531 L 226.714844 335.113281 C 225.601562 338.824219 225.03125 342.695312 225.03125 346.566406 C 225.03125 349.042969 225.253906 351.484375 225.699219 353.894531 L 225.953125 355.957031 C 226.269531 361.730469 222.90625 363.316406 213.863281 363.347656 C 210.597656 363.316406 207.867188 360.84375 207.582031 357.605469 C 206.789062 349.230469 206.726562 338.699219 206.851562 329.941406 L 206.882812 329.941406 L 206.851562 329.910156 C 207.011719 320.234375 210.628906 312.304688 207.421875 312.714844 C 204.25 313.097656 201.015625 313.320312 197.808594 313.320312 C 196.253906 313.320312 194.699219 313.253906 193.144531 313.160156 C 189.023438 317.253906 184.167969 323.597656 182.011719 332.132812 C 181.757812 333.179688 181.535156 334.160156 181.34375 335.050781 C 180.042969 341.617188 180.773438 344.695312 181.058594 349.453125 C 181.726562 360.746094 164.085938 356.210938 163.480469 348.945312 L 163.480469 348.789062 C 163.511719 351.863281 163.863281 354.910156 164.527344 357.859375 C 164.59375 358.179688 164.625 358.496094 164.625 358.8125 C 164.625 361.066406 162.972656 362.96875 160.753906 363.316406 C 157.390625 363.824219 153.488281 364.429688 150.726562 362.714844 C 148.949219 361.574219 147.648438 359.796875 147.109375 357.765625 C 144.507812 347.835938 144.097656 337.84375 144.476562 329.59375 C 144.636719 325.660156 145.046875 321.695312 145.621094 317.824219 C 145.777344 316.808594 145.839844 315.761719 145.839844 314.746094 C 145.839844 311.066406 144.921875 307.449219 143.113281 304.214844 C 140.289062 298.980469 138.796875 293.140625 138.796875 287.207031 C 138.796875 283.972656 139.242188 280.738281 140.132812 277.628906 C 131.023438 281.402344 124.679688 289.839844 123.601562 299.675781 C 123.441406 304.277344 122.839844 308.875 121.792969 313.351562 L 121.792969 313.382812 C 121.699219 313.667969 121.632812 313.984375 121.570312 314.269531 C 117.289062 331.054688 107.929688 335.9375 107.929688 335.9375 C 94.191406 342.472656 85.085938 338.316406 80.929688 335.335938 C 80.136719 334.765625 79.691406 333.84375 79.691406 332.859375 C 79.691406 332.164062 79.945312 331.464844 80.390625 330.925781 C 82.101562 328.671875 83.402344 326.105469 84.292969 323.40625 C 87.050781 315.445312 87.335938 306.339844 87.335938 306.339844 C 87.050781 270.648438 118.9375 255.578125 118.9375 255.578125 C 138.132812 239.082031 161.007812 245.996094 161.007812 245.996094 C 178.363281 250.914062 203.078125 251.515625 203.078125 251.515625 C 221.921875 250.628906 225.984375 239.621094 225.984375 239.621094 L 226.015625 239.621094 C 225.414062 239.683594 224.839844 239.714844 224.269531 239.714844 C 221.796875 239.714844 219.382812 239.113281 217.226562 238.003906 C 216.816406 237.75 216.5625 237.304688 216.5625 236.828125 C 216.5625 236.605469 216.59375 236.382812 216.71875 236.195312 C 221.605469 227.246094 228.777344 224.296875 228.902344 224.234375 C 226.300781 223.441406 224.175781 221.632812 222.9375 219.222656 C 222.875 219.0625 222.8125 218.871094 222.8125 218.714844 C 222.8125 218.269531 223.066406 217.890625 223.445312 217.699219 C 238.199219 210.371094 238.355469 205.101562 238.355469 205.101562 C 231.089844 195.902344 229.410156 184.007812 231.726562 176.074219 C 232.742188 172.585938 236.898438 170.171875 240.324219 171.441406 C 256.535156 177.3125 262.246094 189.144531 262.246094 189.144531 L 272.113281 189.144531 C 275.761719 181.117188 282.203125 174.679688 290.199219 171 C 291.277344 170.523438 292.417969 170.269531 293.59375 170.269531 C 297.621094 170.269531 301.050781 173.25 301.652344 177.25 C 304.03125 194.09375 295.625 203.007812 295.625 203.007812 C 305.617188 211.289062 307.554688 223.125 307.902344 226.675781 C 307.902344 226.707031 307.902344 226.773438 307.902344 226.804688 C 307.902344 227.027344 307.839844 227.246094 307.710938 227.4375 C 307.808594 227.53125 307.902344 227.628906 307.964844 227.722656 L 307.488281 227.660156 C 307.332031 227.785156 307.140625 227.882812 306.917969 227.914062 C 306.570312 227.945312 306.1875 227.976562 305.808594 227.976562 C 304.316406 227.976562 302.824219 227.691406 301.429688 227.152344 C 309.902344 241.90625 308.027344 252.660156 307.171875 255.800781 C 307.046875 256.339844 306.507812 256.753906 305.933594 256.753906 C 301.082031 256.816406 299.113281 255.261719 299.113281 255.261719 C 302.605469 273.25 290.101562 285.433594 290.101562 285.433594 C 285.1875 300.820312 269.796875 302.847656 269.796875 302.847656 C 267.261719 306.878906 263.390625 309.257812 259.457031 310.683594 Z M 164.71875 337.367188 C 164.878906 337.398438 165.035156 337.429688 165.195312 337.460938 C 165.035156 337.398438 164.910156 337.335938 164.75 337.269531 Z M 164.71875 337.367188 " fill-opacity="1" fill-rule="nonzero"/></g><path fill="#e67f22" d="M 162.847656 344.789062 C 163.292969 343.902344 163.734375 343.550781 164.179688 343.679688 C 164.625 343.839844 164.847656 344.21875 164.847656 344.789062 C 164.273438 345.835938 163.609375 346.058594 162.847656 345.457031 C 162.71875 345.171875 162.71875 344.949219 162.847656 344.789062 Z M 166.179688 347.898438 L 166.402344 347.898438 C 167.003906 348.058594 167.289062 348.40625 167.289062 349.007812 C 166.6875 349.582031 166.148438 349.738281 165.640625 349.453125 C 165.101562 349.136719 164.625 348.628906 164.179688 347.898438 L 163.511719 346.789062 C 164.273438 346.34375 164.878906 346.121094 165.417969 346.121094 C 165.925781 346.121094 166.210938 346.34375 166.304688 346.789062 C 166.367188 347.234375 166.335938 347.613281 166.179688 347.898438 Z M 257.011719 246.441406 C 257.742188 253.261719 257.582031 260.558594 256.566406 268.394531 C 255.519531 275.46875 254.1875 282.765625 252.570312 290.316406 C 249.175781 304.941406 244.894531 317.316406 239.722656 327.53125 C 236.328125 334.320312 234.328125 337.777344 233.726562 337.9375 C 233.597656 337.9375 233.945312 337.269531 234.835938 335.9375 C 233.945312 337.554688 232.425781 339.777344 230.203125 342.570312 C 228.425781 344.949219 226.585938 347.167969 224.652344 349.230469 C 223.761719 349.960938 223.097656 350.246094 222.652344 350.121094 C 222.207031 349.960938 221.984375 349.644531 221.984375 349.105469 C 221.984375 348.597656 221.984375 348.28125 221.984375 348.121094 C 221.984375 347.960938 222.304688 347.550781 222.875 346.882812 C 223.476562 346.25 224.207031 345.394531 225.09375 344.347656 C 225.984375 343.332031 226.714844 342.347656 227.316406 341.457031 C 228.046875 340.445312 228.710938 339.398438 229.316406 338.382812 C 229.886719 337.335938 230.332031 336.476562 230.648438 335.8125 C 230.933594 335.144531 230.996094 334.828125 230.871094 334.828125 C 230.710938 334.667969 230.550781 334.636719 230.425781 334.734375 C 230.265625 334.796875 230.078125 334.953125 229.855469 335.144531 C 229.632812 335.367188 229.441406 335.589844 229.316406 335.8125 C 229.15625 336.035156 228.902344 336.382812 228.523438 336.828125 C 228.171875 337.269531 227.855469 337.683594 227.632812 338.03125 C 227.410156 338.414062 227.125 338.890625 226.777344 339.492188 C 226.394531 340.0625 226.046875 340.507812 225.761719 340.824219 C 225.476562 341.238281 223.191406 344.21875 218.910156 349.675781 C 218.304688 350.246094 217.226562 351.324219 215.671875 352.878906 C 214.148438 354.433594 212.847656 355.578125 211.800781 356.304688 C 208.566406 358.972656 205.835938 359.921875 203.617188 359.191406 C 203.457031 359.191406 202.949219 359.191406 202.0625 359.191406 C 201.902344 359.191406 201.839844 359.191406 201.839844 359.191406 C 201.394531 359.191406 201.171875 358.8125 201.171875 358.082031 C 198.222656 358.527344 195.652344 358.75 193.433594 358.75 C 189.308594 358.75 185.691406 358.242188 182.582031 357.195312 C 179.027344 356.019531 175.917969 354.242188 173.285156 351.894531 C 170.304688 349.230469 168.90625 347.675781 169.066406 347.234375 C 168.621094 346.628906 168.113281 345.742188 167.511719 344.566406 C 165.894531 343.109375 165.066406 342.0625 165.066406 341.457031 C 164.941406 341.015625 164.78125 340.664062 164.625 340.378906 C 164.625 340.222656 164.558594 340.0625 164.402344 339.9375 C 164.273438 339.777344 164.179688 339.714844 164.179688 339.714844 C 164.179688 339.554688 164.085938 339.300781 163.863281 338.921875 C 163.640625 338.570312 163.386719 338 163.070312 337.269531 C 162.785156 336.542969 162.5625 335.875 162.402344 335.273438 C 161.671875 332.480469 161.164062 330.925781 160.878906 330.609375 C 160.878906 330.480469 160.65625 330.480469 160.214844 330.609375 C 160.054688 330.609375 159.992188 330.765625 159.992188 331.054688 C 159.992188 331.054688 159.992188 331.242188 159.992188 331.625 C 159.992188 331.972656 160.054688 332.257812 160.214844 332.386719 C 160.214844 332.386719 160.308594 332.957031 160.53125 334.066406 C 160.753906 335.144531 160.976562 336.222656 161.199219 337.269531 C 161.417969 338.285156 161.609375 338.890625 161.769531 339.046875 C 161.769531 339.175781 161.894531 339.554688 162.210938 340.15625 C 163.671875 341.902344 163.734375 343.234375 162.402344 344.125 C 161.992188 344.28125 160.878906 342.503906 159.105469 338.824219 C 157.042969 334.097656 155.707031 329.59375 155.105469 325.308594 C 153.203125 314.96875 153.265625 302.847656 155.328125 288.984375 C 157.261719 274.199219 160.5 261.449219 165.066406 250.660156 L 165.734375 249.550781 C 165.734375 249.710938 165.609375 250.214844 165.289062 251.105469 C 165.449219 250.503906 166.179688 248.664062 167.511719 245.585938 C 168.84375 242.476562 169.667969 240.636719 169.953125 240.03125 C 170.523438 239.144531 171.128906 238.921875 171.730469 239.367188 C 172.300781 239.8125 172.621094 240.253906 172.621094 240.699219 C 169.953125 247.933594 168.84375 251.613281 169.289062 251.769531 C 169.890625 252.058594 170.746094 250.566406 171.953125 247.234375 C 173.125 243.902344 173.953125 241.144531 174.363281 238.921875 C 174.808594 238.191406 175.1875 236.921875 175.472656 235.148438 C 175.792969 233.402344 176.171875 231.878906 176.710938 230.609375 C 177.21875 229.375 178.074219 228.578125 179.25 228.292969 C 179.25 228.292969 179.472656 228.136719 179.917969 227.851562 L 180.136719 227.628906 C 180.296875 227.46875 180.519531 227.53125 180.804688 227.753906 C 181.089844 227.976562 181.40625 228.199219 181.691406 228.390625 C 181.980469 228.613281 182.199219 228.738281 182.359375 228.738281 C 182.484375 228.738281 182.773438 228.515625 183.121094 228.074219 C 183.5 227.628906 183.914062 227.566406 184.359375 227.851562 C 184.800781 228.136719 185.054688 228.453125 185.121094 228.738281 C 185.183594 229.023438 185.152344 229.375 185.023438 229.722656 C 184.867188 230.101562 184.675781 230.421875 184.453125 230.738281 C 184.230469 231.023438 184.039062 231.308594 183.914062 231.625 C 183.753906 231.910156 183.691406 232.070312 183.691406 232.070312 C 183.53125 232.070312 183.53125 232.132812 183.691406 232.292969 C 185.023438 230.230469 186.324219 228.453125 187.65625 226.960938 C 191.496094 222.109375 195.875 217.953125 200.730469 214.558594 C 201.617188 213.988281 202.441406 213.445312 203.171875 213.003906 C 203.902344 212.558594 204.566406 212.179688 205.171875 211.796875 C 205.742188 211.417969 206.28125 211.132812 206.726562 210.910156 C 207.167969 210.6875 207.519531 210.59375 207.835938 210.59375 L 208.058594 210.371094 C 208.34375 210.210938 208.851562 210.050781 209.613281 209.925781 C 210.34375 209.765625 211.039062 209.609375 211.707031 209.480469 C 212.371094 209.324219 212.722656 209.257812 212.816406 209.257812 C 212.878906 209.257812 213.101562 209.101562 213.484375 208.816406 C 213.832031 208.496094 214.085938 208.371094 214.246094 208.371094 C 214.246094 208.210938 215.195312 208.496094 217.132812 209.257812 C 218.304688 208.65625 220.019531 208.496094 222.207031 208.816406 C 225.476562 209.257812 228.585938 210.050781 231.535156 211.226562 C 239.65625 214.78125 245.113281 220.457031 247.90625 228.292969 C 247.90625 228.453125 248.003906 228.578125 248.128906 228.738281 C 248.289062 228.898438 248.351562 228.960938 248.351562 228.960938 C 248.667969 229.246094 249.621094 232.800781 251.238281 239.589844 C 251.398438 239.746094 251.617188 239.8125 251.90625 239.8125 C 252.0625 239.652344 252.125 239.429688 252.125 239.144531 C 252.125 239.144531 252.125 238.921875 252.125 238.476562 C 252.125 238.035156 252.125 237.75 252.125 237.589844 C 252.125 237.464844 251.9375 236.195312 251.554688 233.847656 C 251.207031 231.46875 250.953125 230.230469 250.792969 230.070312 C 250.792969 229.785156 250.730469 229.339844 250.570312 228.738281 C 250.570312 228.738281 250.507812 228.613281 250.351562 228.390625 C 250.191406 228.199219 250.0625 227.914062 249.90625 227.628906 C 249.746094 227.34375 249.652344 226.992188 249.589844 226.644531 C 249.492188 226.265625 249.523438 225.882812 249.683594 225.535156 C 249.84375 225.152344 250.128906 224.898438 250.570312 224.742188 C 250.730469 224.613281 251.207031 225.375 252 227.089844 C 252.824219 228.769531 253.746094 231.433594 254.792969 235.050781 C 255.808594 238.667969 256.566406 242.476562 257.011719 246.441406 Z M 170.175781 344.347656 C 170.90625 345.394531 171.414062 345.742188 171.730469 345.457031 C 172.015625 345.171875 170.96875 343.457031 168.621094 340.378906 C 168.335938 340.507812 168.175781 340.664062 168.175781 340.824219 C 168.335938 341.109375 168.496094 341.425781 168.714844 341.808594 C 168.9375 342.1875 169.160156 342.570312 169.382812 343.011719 C 169.605469 343.457031 169.796875 343.773438 169.953125 343.902344 C 169.953125 344.058594 169.984375 344.15625 170.050781 344.25 C 170.144531 344.3125 170.175781 344.347656 170.175781 344.347656 Z M 223.097656 212.113281 C 222.8125 211.988281 222.429688 211.988281 221.984375 212.113281 C 222.144531 212.71875 222.304688 213.382812 222.429688 214.113281 C 222.589844 214.113281 222.8125 214.144531 223.097656 214.242188 C 223.414062 214.304688 223.636719 214.429688 223.761719 214.558594 C 224.207031 214.84375 224.652344 214.9375 225.09375 214.78125 C 225.09375 214.78125 225.539062 214.96875 226.429688 215.351562 C 227.316406 215.699219 227.980469 215.921875 228.425781 216.015625 C 228.871094 216.082031 229.316406 215.890625 229.757812 215.445312 C 229.441406 215 229.09375 214.714844 228.648438 214.558594 C 228.363281 214.558594 227.949219 214.304688 227.410156 213.796875 C 226.902344 213.257812 226.492188 213.003906 226.207031 213.003906 C 226.046875 213.003906 225.953125 212.941406 225.886719 212.78125 C 225.792969 212.652344 225.699219 212.558594 225.539062 212.558594 C 225.414062 212.558594 225.222656 212.558594 225 212.558594 C 224.777344 212.558594 224.652344 212.558594 224.652344 212.558594 L 223.984375 212.335938 C 223.539062 212.210938 223.253906 212.113281 223.097656 212.113281 Z M 187.4375 261.066406 C 186.992188 262.558594 186.992188 263.507812 187.4375 263.953125 C 187.4375 263.796875 187.53125 263.476562 187.65625 262.96875 C 187.816406 262.429688 187.878906 262.082031 187.878906 261.859375 C 187.878906 261.636719 187.753906 261.449219 187.4375 261.289062 C 187.4375 261.289062 187.4375 261.226562 187.4375 261.066406 Z M 212.246094 325.976562 C 213.132812 324.929688 214.085938 323.46875 215.132812 321.535156 C 216.179688 319.632812 216.242188 318.519531 215.355469 318.203125 C 214.625 318.078125 214.023438 318.425781 213.578125 319.316406 C 213.578125 319.632812 213.578125 319.855469 213.578125 319.980469 C 213.453125 320.582031 212.914062 321.1875 212.023438 321.757812 C 211.136719 322.488281 210.691406 323.027344 210.691406 323.3125 C 210.5625 323.597656 210.34375 323.820312 210.023438 323.976562 C 209.738281 323.976562 209.613281 324.042969 209.613281 324.199219 C 209.613281 324.359375 209.515625 324.613281 209.390625 324.960938 C 209.230469 325.34375 209.074219 325.597656 208.945312 325.753906 C 208.789062 325.882812 208.628906 326.105469 208.503906 326.421875 C 207.898438 326.707031 207.519531 326.992188 207.390625 327.308594 C 206.789062 328.039062 206.28125 328.863281 205.835938 329.71875 C 205.679688 330.164062 205.394531 330.609375 204.949219 331.054688 C 204.664062 331.371094 204.347656 331.496094 204.058594 331.496094 C 203.902344 331.496094 203.773438 331.59375 203.617188 331.71875 C 203.457031 331.878906 203.332031 332.035156 203.171875 332.164062 C 202.125 332.320312 201.839844 332.925781 202.285156 333.941406 C 202.726562 333.78125 202.949219 333.71875 202.949219 333.71875 C 203.394531 333.71875 203.839844 333.65625 204.28125 333.496094 C 204.28125 333.496094 204.28125 333.433594 204.28125 333.273438 C 204.28125 333.113281 204.347656 333.050781 204.503906 333.050781 C 204.347656 333.050781 204.664062 333.113281 205.394531 333.273438 C 207.011719 331.941406 207.960938 331.148438 208.28125 330.832031 C 208.40625 330.386719 208.820312 329.847656 209.484375 329.179688 C 210.152344 328.515625 210.5625 328.101562 210.691406 327.976562 L 210.914062 327.753906 C 211.675781 326.992188 212.117188 326.421875 212.246094 325.976562 Z M 220.464844 287.652344 C 220.589844 286.921875 221.128906 285.179688 221.984375 282.449219 C 222.875 279.722656 223.636719 277.246094 224.207031 275.027344 C 224.808594 272.804688 225.539062 269.980469 226.429688 266.492188 C 227.316406 263.035156 228.015625 259.859375 228.523438 256.972656 C 229.0625 254.085938 229.441406 250.914062 229.757812 247.457031 C 230.042969 244 230.109375 240.890625 229.980469 238.160156 C 229.824219 235.433594 229.347656 232.769531 228.523438 230.167969 C 227.730469 227.597656 226.585938 225.40625 225.09375 223.632812 C 218.019531 224.074219 211.898438 235.019531 206.726562 256.433594 C 206.28125 257.765625 205.902344 258.847656 205.613281 259.734375 C 205.613281 259.894531 205.234375 259.894531 204.503906 259.734375 C 203.773438 259.609375 203.332031 259.449219 203.171875 259.289062 C 203.011719 259.289062 203.011719 258.6875 203.171875 257.417969 C 203.332031 256.148438 203.234375 255.453125 202.949219 255.324219 C 202.347656 255.164062 201.902344 255.546875 201.617188 256.433594 C 201.332031 258.054688 201.492188 259.164062 202.0625 259.734375 C 201.902344 260.050781 202.441406 260.71875 203.617188 261.734375 C 204.21875 262.175781 203.996094 262.460938 202.949219 262.621094 L 202.503906 262.84375 C 202.503906 262.84375 202.316406 262.84375 201.964844 262.84375 C 201.585938 262.84375 201.203125 262.84375 200.855469 262.84375 C 200.476562 262.84375 200.222656 262.875 200.0625 262.96875 C 199.9375 263.035156 199.839844 263.097656 199.839844 263.191406 C 199.839844 263.257812 199.554688 263.351562 198.953125 263.507812 C 198.382812 263.507812 197.9375 263.476562 197.652344 263.414062 C 197.335938 263.320312 197.207031 263.222656 197.207031 263.066406 C 197.207031 262.90625 197.207031 262.78125 197.207031 262.621094 L 197.207031 262.398438 C 196.761719 261.957031 196.320312 262.019531 195.875 262.621094 C 196 263.507812 195.78125 264.015625 195.207031 264.175781 C 195.050781 264.175781 194.765625 264.238281 194.320312 264.398438 C 190.925781 273.566406 188.546875 282.101562 187.214844 290.09375 C 187.214844 290.222656 186.863281 291.9375 186.101562 295.171875 C 185.375 298.4375 184.835938 301.007812 184.453125 302.945312 C 184.074219 304.847656 183.597656 307.671875 183.027344 311.351562 C 182.421875 315.03125 182.136719 318.109375 182.136719 320.550781 C 182.136719 322.996094 182.167969 325.5625 182.230469 328.292969 C 182.328125 331.019531 182.804688 333.210938 183.691406 334.828125 C 184.582031 336.445312 185.753906 337.492188 187.214844 337.9375 C 188.546875 338.222656 190.101562 337.90625 191.878906 336.921875 C 193.652344 335.96875 195.113281 334.859375 196.320312 333.621094 C 197.492188 332.355469 198.824219 330.894531 200.285156 329.179688 C 201.777344 327.46875 202.664062 326.484375 202.949219 326.199219 C 202.949219 326.199219 203.078125 326.039062 203.300781 325.753906 C 203.519531 325.4375 203.839844 325.023438 204.28125 324.421875 C 204.726562 323.820312 205.203125 323.121094 205.710938 322.328125 C 206.25 321.503906 206.851562 320.550781 207.613281 319.441406 C 208.34375 318.332031 209.074219 317.125 209.804688 315.792969 C 213.640625 308.558594 217.195312 299.167969 220.464844 287.652344 Z M 250.128906 223.851562 C 249.84375 224.457031 249.492188 224.773438 249.144531 224.867188 C 248.761719 224.933594 248.507812 224.835938 248.351562 224.519531 C 248.222656 224.234375 248.128906 223.851562 248.128906 223.410156 C 249.175781 222.679688 249.84375 222.835938 250.128906 223.851562 Z M 245.90625 221.21875 C 245.335938 221.0625 245.050781 220.777344 245.050781 220.332031 C 245.464844 219.730469 245.972656 219.539062 246.480469 219.761719 C 246.988281 219.984375 247.460938 220.394531 247.90625 220.996094 L 248.574219 222.109375 C 248.003906 222.519531 247.460938 222.804688 247.019531 222.871094 C 246.574219 222.933594 246.257812 222.804688 246.035156 222.425781 C 245.8125 222.042969 245.78125 221.664062 245.90625 221.21875 Z M 245.90625 221.21875 " fill-opacity="1" fill-rule="nonzero"/><path fill="#e67f22" d="M 147.363281 203.613281 C 156.535156 204.34375 164.433594 207.894531 171.066406 214.242188 C 176.234375 218.96875 177.503906 222.519531 174.839844 224.867188 C 174.679688 225.027344 174.460938 225.152344 174.171875 225.3125 C 173.570312 225.914062 172.9375 226.136719 172.300781 225.980469 C 171.636719 225.820312 171.128906 225.660156 170.84375 225.4375 C 170.558594 225.21875 170.113281 224.804688 169.511719 224.203125 C 168.9375 223.632812 168.398438 223.1875 167.957031 222.871094 C 167.511719 222.585938 167.066406 222.804688 166.621094 223.535156 C 166.050781 223.980469 166.335938 224.804688 167.511719 225.980469 L 169.066406 227.753906 C 169.066406 228.199219 168.621094 228.546875 167.734375 228.867188 C 166.84375 229.152344 166.273438 229.152344 165.988281 228.867188 C 165.988281 228.867188 166.019531 229.183594 166.082031 229.847656 C 166.148438 230.515625 166.148438 231.339844 166.082031 232.292969 C 166.019531 233.242188 165.703125 234.164062 165.195312 235.050781 C 164.6875 235.941406 163.734375 236.605469 162.308594 237.050781 C 160.910156 237.496094 159.105469 237.496094 156.882812 237.050781 C 156.753906 237.050781 156.089844 236.988281 154.882812 236.828125 C 152.820312 236.542969 151.265625 236.226562 150.25 235.941406 C 141.6875 234.609375 133.40625 234.257812 125.441406 234.828125 C 121.601562 234.988281 117.476562 235.496094 113.035156 236.382812 C 110.085938 236.828125 106.46875 237.496094 102.1875 238.382812 C 102.628906 240.890625 102.628906 244.0625 102.1875 247.902344 C 102.1875 249.964844 101.457031 254.5625 99.964844 261.636719 C 103.074219 261.636719 105.800781 261.636719 108.148438 261.636719 C 111.417969 261.636719 114.65625 261.574219 117.921875 261.414062 C 121.160156 261.257812 123.507812 261.128906 124.996094 260.972656 L 127.441406 260.527344 C 130.390625 260.082031 132.867188 260.019531 134.863281 260.304688 C 136.832031 260.589844 138.511719 260.8125 139.84375 260.972656 C 141.179688 261.128906 142.160156 261.605469 142.828125 262.398438 C 143.492188 263.222656 143.96875 263.890625 144.253906 264.398438 C 144.574219 264.9375 144.636719 265.636719 144.476562 266.523438 C 144.351562 267.410156 144.222656 268.015625 144.160156 268.394531 C 144.097656 268.777344 143.96875 269.253906 143.8125 269.824219 C 143.683594 270.140625 142.921875 270.488281 141.621094 270.933594 C 141.304688 271.820312 141.242188 272.710938 141.398438 273.597656 C 141.527344 274.488281 141.75 275.3125 142.066406 276.042969 C 142.351562 276.769531 142.351562 277.4375 142.066406 278.039062 C 141.75 278.609375 141.082031 278.929688 140.066406 278.929688 L 140.511719 279.785156 L 143.144531 279.371094 C 143.746094 280.101562 143.683594 280.863281 142.921875 281.6875 C 142.191406 282.480469 141.621094 282.988281 141.179688 283.117188 C 141.019531 283.117188 140.796875 283.117188 140.511719 283.117188 C 140.351562 283.117188 140.257812 283.210938 140.164062 283.339844 C 140.097656 283.496094 140.066406 283.558594 140.066406 283.558594 C 139.910156 283.558594 139.082031 283.8125 137.625 284.351562 C 136.132812 284.859375 135.339844 285.179688 135.179688 285.335938 C 135.023438 285.335938 135.023438 285.558594 135.179688 286.003906 C 135.179688 286.160156 135.246094 286.226562 135.402344 286.226562 C 135.402344 286.382812 135.53125 286.445312 135.753906 286.445312 C 135.976562 286.445312 136.132812 286.445312 136.292969 286.445312 C 138.226562 286.003906 139.464844 285.78125 140.066406 285.78125 C 140.195312 285.78125 140.417969 285.71875 140.734375 285.558594 C 141.464844 284.386719 142.191406 284.671875 142.921875 286.445312 C 142.921875 286.445312 142.828125 286.605469 142.605469 286.890625 C 142.382812 287.175781 141.9375 287.492188 141.273438 287.78125 C 140.605469 288.066406 139.878906 288.414062 139.050781 288.761719 C 138.257812 289.144531 137.277344 289.554688 136.195312 290 C 135.085938 290.445312 133.945312 290.792969 132.738281 291.109375 C 126.996094 292.855469 119.824219 293.964844 111.257812 294.410156 C 108.753906 294.410156 105.421875 294.503906 101.296875 294.632812 L 90.226562 294.855469 C 90.226562 294.855469 90.382812 294.789062 90.667969 294.632812 C 90.667969 294.789062 90.511719 294.855469 90.226562 294.855469 C 89.9375 294.855469 89.71875 294.855469 89.558594 294.855469 C 89.398438 295.457031 89.335938 295.742188 89.335938 295.742188 C 85.339844 307.417969 81.945312 317.316406 79.152344 325.4375 C 77.660156 329.5625 76.550781 332.734375 75.820312 334.953125 L 74.265625 338.730469 C 72.648438 341.808594 71.539062 344.027344 70.964844 345.359375 C 70.808594 345.519531 70.746094 345.804688 70.746094 346.25 C 70.746094 346.695312 70.746094 346.914062 70.746094 346.914062 C 70.746094 347.042969 70.425781 347.265625 69.855469 347.582031 C 69.253906 347.867188 68.652344 348.121094 68.078125 348.34375 C 67.476562 348.566406 67.191406 348.597656 67.191406 348.46875 C 66.589844 348.597656 66.238281 348.722656 66.082031 348.789062 C 65.921875 348.851562 65.796875 348.914062 65.636719 348.914062 C 65.351562 349.042969 64.90625 349.261719 64.304688 349.582031 C 62.082031 350.753906 60.527344 350.976562 59.671875 350.246094 C 59.511719 350.089844 59.386719 349.898438 59.324219 349.675781 C 59.257812 349.453125 59.226562 349.167969 59.226562 348.789062 C 59.226562 348.4375 59.226562 348.058594 59.226562 347.675781 C 59.226562 347.328125 59.226562 346.980469 59.226562 346.695312 C 59.355469 346.25 59.003906 345.964844 58.117188 345.804688 C 57.355469 345.519531 56.878906 345.773438 56.65625 346.566406 C 56.4375 347.390625 56.371094 348.246094 56.4375 349.136719 C 56.53125 350.023438 56.625 350.375 56.785156 350.246094 C 56.625 350.691406 56.117188 350.882812 55.230469 350.882812 C 54.339844 350.882812 53.738281 350.53125 53.453125 349.800781 C 53.453125 349.359375 53.199219 349.359375 52.691406 349.800781 C 52.152344 350.246094 51.613281 350.183594 51.011719 349.675781 C 50.4375 349.167969 50.058594 347.929688 49.898438 346.027344 C 49.773438 345.867188 49.582031 345.835938 49.359375 345.898438 C 49.136719 345.996094 49.011719 346.089844 49.011719 346.25 C 48.882812 348.3125 48.789062 349.800781 48.789062 350.691406 L 48.789062 353.101562 C 48.058594 353.988281 47.265625 353.261719 46.378906 350.882812 C 46.378906 350.59375 46.28125 350.308594 46.15625 350.023438 C 45.710938 347.929688 45.617188 346.089844 45.933594 344.472656 C 46.0625 344.027344 46.21875 343.585938 46.378906 343.140625 C 46.378906 342.980469 46.378906 342.824219 46.378906 342.601562 C 46.378906 342.378906 46.378906 342.1875 46.378906 342.03125 C 46.503906 341.140625 46.949219 339.523438 47.710938 337.175781 C 48.566406 334.511719 49.011719 332.957031 49.011719 332.511719 C 49.011719 332.355469 48.882812 332.226562 48.566406 332.066406 C 48.441406 332.066406 48.28125 332.132812 48.125 332.289062 C 47.835938 332.734375 47.617188 333.113281 47.488281 333.402344 C 46.886719 334.574219 46.441406 335.527344 46.15625 336.289062 C 45.394531 338.191406 44.949219 339.363281 44.824219 339.808594 C 44.664062 340.125 44.507812 340.570312 44.378906 341.140625 C 44.378906 342.03125 44.285156 342.792969 44.15625 343.363281 C 43.871094 344.851562 43.207031 345.519531 42.160156 345.359375 C 42 345.359375 41.9375 345.234375 41.9375 345.011719 C 41.9375 344.789062 41.9375 344.472656 41.9375 344.027344 C 41.9375 343.585938 41.96875 343.078125 42.03125 342.472656 C 42.125 341.902344 42.191406 341.171875 42.253906 340.378906 C 42.347656 339.554688 42.539062 338.792969 42.824219 338.0625 C 42.824219 337.746094 43.933594 333.464844 46.15625 325.214844 C 48.789062 316.046875 52.28125 304.53125 56.5625 290.667969 C 57.449219 287.683594 58.625 283.941406 60.085938 279.371094 C 61.574219 274.773438 62.78125 270.871094 63.765625 267.632812 C 64.714844 264.367188 65.476562 261.636719 66.082031 259.417969 C 66.367188 258.242188 66.746094 256.753906 67.191406 255.007812 L 68.300781 251.675781 C 68.300781 251.835938 68.207031 252.183594 68.078125 252.785156 C 69.253906 248.058594 69.855469 244.726562 69.855469 242.824219 C 69.984375 241.9375 70.425781 241.554688 71.1875 241.714844 C 71.917969 241.839844 72.363281 242.0625 72.488281 242.378906 C 72.648438 242.507812 72.585938 244.316406 72.265625 247.804688 C 71.980469 251.265625 71.980469 253.007812 72.265625 253.007812 C 73.15625 253.136719 73.757812 251.390625 74.042969 247.679688 C 74.359375 244 74.203125 241.621094 73.601562 240.605469 C 73.757812 239.714844 73.472656 238.542969 72.710938 237.050781 C 70.078125 237.210938 68.363281 236.542969 67.636719 235.050781 C 67.476562 235.050781 67.191406 234.925781 66.746094 234.609375 C 66.589844 234.480469 66.523438 234.386719 66.523438 234.386719 C 66.367188 234.257812 66.367188 234.035156 66.523438 233.71875 C 66.683594 233.433594 66.808594 233.054688 66.96875 232.609375 C 67.128906 232.195312 67.191406 231.878906 67.191406 231.753906 C 67.191406 231.59375 66.90625 231.402344 66.300781 231.179688 C 65.699219 230.960938 65.476562 230.546875 65.636719 229.976562 C 65.796875 229.53125 66.113281 229.214844 66.621094 229.085938 C 67.160156 228.929688 67.636719 228.929688 68.078125 229.085938 C 68.523438 229.214844 68.9375 229.375 69.285156 229.53125 C 69.664062 229.660156 69.917969 229.753906 70.078125 229.753906 C 70.523438 229.753906 70.746094 229.53125 70.746094 229.085938 C 70.746094 228.769531 70.585938 228.546875 70.300781 228.421875 C 69.984375 228.421875 69.253906 228.136719 68.078125 227.53125 C 66.90625 226.929688 66.300781 226.421875 66.300781 225.980469 C 66.300781 225.691406 66.335938 225.34375 66.398438 224.996094 C 66.492188 224.613281 66.523438 224.425781 66.523438 224.425781 C 66.523438 223.851562 66.746094 223.3125 67.191406 222.871094 C 67.476562 222.742188 67.984375 222.871094 68.746094 223.3125 C 69.191406 223.3125 69.539062 223.027344 69.855469 222.425781 C 69.09375 221.535156 68.839844 220.777344 69.0625 220.109375 C 69.285156 219.441406 69.699219 219.125 70.300781 219.125 C 70.585938 219.125 71.0625 219.285156 71.726562 219.664062 C 72.394531 220.046875 72.933594 220.332031 73.378906 220.554688 C 73.820312 220.777344 74.265625 220.742188 74.710938 220.425781 C 74.867188 220.140625 75.25 220.046875 75.820312 220.109375 C 76.421875 220.171875 76.710938 219.792969 76.710938 218.902344 C 76.710938 218.460938 76.488281 218.078125 76.042969 217.792969 C 75.597656 217.476562 75.121094 217.253906 74.613281 217.128906 C 74.074219 216.96875 73.566406 216.875 73.058594 216.777344 C 72.554688 216.714844 72.203125 216.683594 72.046875 216.683594 C 71.316406 216.398438 71.21875 215.128906 71.726562 212.90625 C 72.234375 210.6875 72.933594 209.578125 73.820312 209.578125 C 73.980469 209.734375 74.265625 209.703125 74.710938 209.480469 C 75.15625 209.257812 75.535156 209.070312 75.820312 208.910156 C 76.105469 208.785156 76.265625 208.6875 76.265625 208.6875 C 76.996094 209.292969 77.820312 209.226562 78.707031 208.496094 C 79.882812 207.609375 81.660156 207.164062 84.007812 207.164062 C 84.164062 207.164062 84.609375 207.101562 85.339844 207.039062 C 86.101562 206.976562 87.242188 206.847656 88.796875 206.722656 C 90.320312 206.5625 92 206.339844 93.777344 206.054688 C 94.953125 205.738281 96.792969 205.390625 99.296875 204.945312 C 101.804688 204.5 103.742188 204.214844 105.074219 204.054688 C 107.136719 203.613281 110.339844 203.199219 114.6875 202.820312 C 119.0625 202.46875 124.554688 202.28125 131.183594 202.28125 C 137.847656 202.28125 143.238281 202.722656 147.363281 203.613281 Z M 90.445312 235.050781 C 90.730469 235.050781 90.953125 234.925781 91.113281 234.609375 C 90.511719 234.609375 89.9375 234.703125 89.335938 234.828125 C 89.496094 234.988281 89.84375 235.050781 90.445312 235.050781 Z M 89.113281 214.242188 C 89.113281 214.242188 89.175781 214.242188 89.335938 214.242188 C 93.460938 214.242188 95.394531 213.574219 95.109375 212.242188 C 94.792969 211.226562 94.128906 211.066406 93.113281 211.796875 C 92.792969 211.957031 92.222656 211.894531 91.335938 211.574219 C 90.445312 211.289062 89.9375 211.226562 89.78125 211.351562 C 89.621094 211.511719 89.429688 211.511719 89.242188 211.351562 C 89.019531 211.226562 88.828125 211.132812 88.671875 211.132812 C 88.671875 211.132812 88.511719 211.226562 88.226562 211.351562 C 87.941406 211.511719 87.71875 211.574219 87.558594 211.574219 L 86.894531 211.574219 C 86.449219 211.449219 86.101562 211.351562 85.78125 211.351562 C 85.339844 211.351562 84.671875 211.511719 83.785156 211.796875 C 83.371094 211.957031 82.925781 212.019531 82.484375 212.019531 C 82.167969 212.179688 81.945312 212.113281 81.816406 211.796875 C 81.660156 211.796875 81.5 211.796875 81.371094 211.796875 C 81.214844 211.796875 81.054688 211.796875 80.929688 211.796875 C 80.039062 211.066406 79.5 211.511719 79.375 213.128906 C 79.375 213.289062 79.46875 213.382812 79.691406 213.480469 C 79.914062 213.542969 80.230469 213.574219 80.578125 213.574219 C 80.960938 213.574219 81.152344 213.574219 81.152344 213.574219 C 81.277344 213.574219 81.371094 213.699219 81.371094 213.921875 C 81.371094 214.144531 81.371094 214.242188 81.371094 214.242188 C 82.992188 214.398438 84.007812 214.460938 84.449219 214.460938 C 84.609375 214.304688 85.054688 214.273438 85.78125 214.367188 C 86.542969 214.429688 87.050781 214.460938 87.335938 214.460938 L 87.558594 214.460938 C 88.289062 214.621094 88.828125 214.527344 89.113281 214.242188 Z M 97.964844 241.269531 C 98.410156 240.382812 98.503906 239.652344 98.1875 239.050781 C 97.300781 239.050781 96.730469 239.113281 96.410156 239.273438 C 96.410156 239.558594 96.347656 240 96.1875 240.605469 C 96.1875 241.175781 96.1875 241.492188 96.1875 241.492188 C 96.1875 241.9375 96.09375 242.160156 95.871094 242.160156 C 95.648438 242.160156 95.523438 242.160156 95.523438 242.160156 C 95.523438 242.445312 95.429688 243.207031 95.207031 244.472656 C 94.984375 245.742188 94.886719 246.664062 94.886719 247.234375 C 94.886719 247.679688 94.667969 249.234375 94.222656 251.898438 L 94 252.34375 C 93.554688 253.359375 93.398438 254.183594 93.554688 254.785156 C 93.554688 254.914062 93.398438 255.453125 93.113281 256.308594 C 92.792969 257.195312 92.539062 258.179688 92.320312 259.195312 C 92.097656 260.242188 92 261.035156 92 261.636719 C 92.445312 261.636719 93.175781 261.636719 94.222656 261.636719 C 94.222656 261.480469 94.222656 261.414062 94.222656 261.414062 C 94.222656 260.972656 94.539062 260.148438 95.207031 258.972656 C 95.871094 257.800781 96.125 257.070312 95.96875 256.753906 C 95.96875 256.464844 96.09375 256.210938 96.316406 255.992188 C 96.539062 255.769531 96.632812 255.515625 96.632812 255.230469 C 96.632812 255.070312 96.632812 254.785156 96.632812 254.339844 C 96.632812 253.898438 96.632812 253.578125 96.632812 253.453125 L 96.855469 252.34375 C 97.300781 251.453125 97.523438 250.789062 97.523438 250.34375 C 97.679688 249.457031 97.679688 248.1875 97.523438 246.570312 C 97.523438 245.839844 97.523438 245.015625 97.523438 244.125 C 97.523438 243.554688 97.679688 243.109375 97.964844 242.824219 C 97.964844 242.667969 97.964844 242.414062 97.964844 242.03125 C 97.964844 241.683594 97.964844 241.398438 97.964844 241.269531 Z M 97.964844 241.269531 " fill-opacity="1" fill-rule="nonzero"/><path fill="#d15124" d="M 241.117188 324.675781 C 240.640625 322.011719 240.070312 319.410156 239.402344 316.808594 L 239.371094 316.839844 L 239.339844 316.839844 C 232.234375 322.390625 228.523438 329.023438 226.679688 335.113281 L 226.617188 335.144531 L 226.714844 335.113281 C 226.109375 337.144531 225.667969 339.238281 225.378906 341.332031 C 224.523438 342.472656 222.367188 345.265625 218.910156 349.675781 C 218.304688 350.246094 217.226562 351.324219 215.671875 352.878906 C 214.148438 354.433594 212.847656 355.578125 211.800781 356.304688 C 210.375 357.480469 209.042969 358.335938 207.804688 358.84375 C 207.707031 358.433594 207.613281 358.019531 207.582031 357.605469 C 206.851562 349.929688 206.726562 340.378906 206.820312 332.101562 C 207.582031 331.464844 208.089844 331.019531 208.28125 330.832031 C 208.40625 330.386719 208.820312 329.847656 209.484375 329.179688 C 210.152344 328.515625 210.5625 328.101562 210.691406 327.976562 L 210.914062 327.753906 C 211.675781 326.992188 212.117188 326.421875 212.246094 325.976562 C 213.132812 324.929688 214.085938 323.46875 215.132812 321.535156 C 216.179688 319.632812 216.242188 318.519531 215.355469 318.203125 C 214.625 318.078125 214.023438 318.425781 213.578125 319.316406 C 213.578125 319.632812 213.578125 319.855469 213.578125 319.980469 C 213.453125 320.582031 212.914062 321.1875 212.023438 321.757812 C 211.136719 322.488281 210.691406 323.027344 210.691406 323.3125 C 210.5625 323.597656 210.34375 323.820312 210.023438 323.976562 C 209.738281 323.976562 209.613281 324.042969 209.613281 324.199219 C 209.613281 324.359375 209.515625 324.613281 209.390625 324.960938 C 209.230469 325.34375 209.074219 325.597656 208.945312 325.753906 C 208.789062 325.882812 208.628906 326.105469 208.503906 326.421875 C 207.898438 326.707031 207.519531 326.992188 207.390625 327.308594 C 207.234375 327.5 207.074219 327.691406 206.949219 327.878906 C 207.167969 324.296875 207.804688 321.027344 208.25 318.457031 C 208.757812 317.632812 209.296875 316.714844 209.804688 315.792969 C 213.640625 308.558594 217.195312 299.167969 220.464844 287.652344 C 220.589844 286.921875 221.128906 285.179688 221.984375 282.449219 C 222.875 279.722656 223.636719 277.246094 224.207031 275.027344 C 224.808594 272.804688 225.539062 269.980469 226.429688 266.492188 C 227.316406 263.035156 228.015625 259.859375 228.523438 256.972656 C 229.0625 254.085938 229.441406 250.914062 229.757812 247.457031 C 230.042969 244 230.109375 240.890625 229.980469 238.160156 C 229.824219 235.433594 229.347656 232.769531 228.523438 230.167969 C 227.980469 228.453125 227.316406 226.929688 226.492188 225.566406 C 227.917969 224.644531 228.871094 224.265625 228.902344 224.234375 C 226.300781 223.441406 224.175781 221.632812 222.9375 219.222656 C 222.875 219.0625 222.8125 218.871094 222.8125 218.714844 C 222.8125 218.269531 223.066406 217.890625 223.445312 217.699219 C 224.839844 217 226.109375 216.335938 227.253906 215.667969 C 227.761719 215.828125 228.140625 215.953125 228.425781 216.015625 C 228.871094 216.082031 229.316406 215.890625 229.757812 215.445312 C 229.535156 215.097656 229.25 214.84375 228.933594 214.683594 C 230.519531 213.699219 231.851562 212.78125 232.964844 211.894531 C 240.292969 215.476562 245.273438 220.933594 247.90625 228.292969 C 247.90625 228.453125 248.003906 228.582031 248.128906 228.738281 C 248.289062 228.898438 248.351562 228.960938 248.351562 228.960938 C 248.667969 229.246094 249.621094 232.800781 251.238281 239.589844 C 251.398438 239.746094 251.617188 239.8125 251.90625 239.8125 C 252.0625 239.652344 252.125 239.429688 252.125 239.144531 C 252.125 239.144531 252.125 238.921875 252.125 238.476562 C 252.125 238.035156 252.125 237.75 252.125 237.589844 C 252.125 237.464844 251.9375 236.195312 251.554688 233.847656 C 251.207031 231.46875 250.953125 230.230469 250.792969 230.070312 C 250.792969 229.785156 250.730469 229.339844 250.570312 228.738281 C 250.570312 228.738281 250.507812 228.613281 250.351562 228.390625 C 250.191406 228.199219 250.0625 227.914062 249.90625 227.628906 C 249.746094 227.34375 249.652344 226.992188 249.589844 226.644531 C 249.492188 226.265625 249.523438 225.882812 249.683594 225.535156 C 249.84375 225.152344 250.128906 224.898438 250.570312 224.742188 C 250.730469 224.613281 251.207031 225.375 252 227.089844 C 252.824219 228.769531 253.746094 231.433594 254.792969 235.050781 C 255.808594 238.667969 256.566406 242.476562 257.011719 246.441406 C 257.742188 253.261719 257.582031 260.558594 256.566406 268.394531 C 255.519531 275.46875 254.1875 282.765625 252.570312 290.316406 C 249.492188 303.578125 245.652344 315.03125 241.117188 324.675781 Z M 225.09375 344.378906 C 225.0625 345.105469 225.03125 345.835938 225.03125 346.566406 C 225.03125 347.296875 225.0625 348.027344 225.09375 348.753906 C 224.9375 348.914062 224.808594 349.074219 224.652344 349.230469 C 223.761719 349.960938 223.097656 350.246094 222.652344 350.121094 C 222.207031 349.960938 221.984375 349.644531 221.984375 349.105469 C 221.984375 348.597656 221.984375 348.28125 221.984375 348.121094 C 221.984375 347.960938 222.304688 347.550781 222.875 346.882812 C 223.476562 346.25 224.207031 345.394531 225.09375 344.378906 Z M 250.128906 223.851562 C 249.84375 224.457031 249.492188 224.773438 249.144531 224.867188 C 248.761719 224.933594 248.507812 224.835938 248.351562 224.519531 C 248.222656 224.234375 248.128906 223.851562 248.128906 223.410156 C 249.175781 222.679688 249.84375 222.835938 250.128906 223.851562 Z M 245.90625 221.21875 C 245.335938 221.0625 245.050781 220.777344 245.050781 220.332031 C 245.464844 219.730469 245.972656 219.539062 246.480469 219.761719 C 246.988281 219.984375 247.460938 220.394531 247.90625 220.996094 L 248.574219 222.109375 C 248.003906 222.519531 247.460938 222.804688 247.019531 222.871094 C 246.574219 222.933594 246.257812 222.804688 246.035156 222.425781 C 245.8125 222.042969 245.78125 221.664062 245.90625 221.21875 Z M 245.90625 221.21875 " fill-opacity="1" fill-rule="nonzero"/><path fill="#e67f22" d="M 363.867188 218.777344 C 363.265625 220.839844 363.203125 223.21875 363.644531 225.851562 C 364.089844 229.40625 363.359375 234.132812 361.425781 240.03125 C 360.535156 244.316406 357.902344 250.976562 353.460938 259.988281 C 349.621094 268.238281 344.515625 276.867188 338.167969 285.875 C 338.488281 286.480469 338.707031 286.988281 338.835938 287.429688 L 340.613281 290.984375 L 340.390625 290.984375 C 340.675781 291.585938 341.4375 293.554688 342.609375 296.949219 C 342.769531 297.265625 342.992188 297.742188 343.277344 298.40625 C 343.5625 299.074219 343.785156 299.550781 343.945312 299.835938 C 344.230469 300.28125 344.386719 300.566406 344.386719 300.722656 C 344.386719 300.722656 344.453125 300.785156 344.609375 300.945312 C 346.671875 305.515625 348.355469 309.574219 349.6875 313.128906 L 355.683594 329.085938 C 355.808594 329.371094 356 330.007812 356.222656 330.957031 C 356.445312 331.910156 356.699219 332.925781 357.015625 333.941406 C 357.300781 334.988281 357.554688 335.9375 357.777344 336.828125 C 358 337.714844 358.125 338.222656 358.125 338.382812 C 358.125 338.539062 358.285156 339.015625 358.664062 339.808594 C 359.046875 340.632812 359.203125 341.171875 359.203125 341.492188 C 359.363281 341.617188 359.394531 342.980469 359.332031 345.582031 C 359.269531 348.152344 359.300781 349.738281 359.425781 350.34375 C 359.425781 350.34375 359.585938 350.847656 359.871094 351.894531 C 360.027344 352.46875 359.777344 353.132812 359.109375 353.894531 C 358.441406 354.625 357.585938 355.003906 356.570312 355.003906 C 355.523438 355.003906 354.636719 354.339844 353.90625 353.007812 C 353.621094 352.691406 352.953125 350.722656 351.90625 347.011719 C 351.621094 346.441406 351.175781 346.21875 350.574219 346.34375 C 349.84375 346.34375 349.78125 347.328125 350.351562 349.230469 L 351.464844 352.5625 C 351.464844 352.691406 351.273438 352.847656 350.921875 353.007812 C 350.542969 353.132812 350.128906 353.132812 349.6875 353.007812 C 349.242188 352.847656 348.957031 352.5625 348.796875 352.117188 C 348.796875 351.960938 348.671875 351.929688 348.355469 351.992188 C 348.066406 352.085938 347.78125 352.183594 347.464844 352.339844 C 347.179688 352.46875 346.832031 352.308594 346.386719 351.769531 C 345.941406 351.261719 345.5 350.5 345.054688 349.453125 C 344.894531 349.296875 344.738281 349.261719 344.609375 349.359375 C 344.453125 349.421875 344.386719 349.515625 344.386719 349.675781 L 345.5 355.003906 C 344.738281 355.417969 344.007812 354.878906 343.277344 353.324219 C 342.546875 351.769531 342.007812 350.40625 341.722656 349.230469 C 341.722656 348.945312 341.660156 348.566406 341.5 348.121094 L 341.277344 347.675781 L 341.058594 347.453125 C 341.058594 347.167969 340.582031 345.582031 339.628906 342.695312 C 338.644531 339.808594 338.042969 338.222656 337.726562 337.9375 C 337.597656 337.652344 337.441406 337.554688 337.28125 337.714844 C 337.15625 337.714844 337.058594 337.875 337.058594 338.160156 C 337.058594 338.601562 337.15625 339.046875 337.28125 339.492188 C 337.441406 339.777344 337.757812 340.949219 338.296875 343.046875 C 338.804688 345.105469 339.058594 346.21875 339.058594 346.34375 C 339.058594 346.503906 339.152344 346.882812 339.28125 347.453125 C 340.613281 349.390625 340.613281 350.5625 339.28125 351.007812 C 339.152344 351.007812 338.773438 350.34375 338.167969 349.007812 C 337.597656 347.675781 336.613281 345.296875 335.28125 341.808594 C 333.980469 338.351562 332.777344 335.273438 331.761719 332.605469 C 328.652344 324.929688 324.972656 316.808594 320.6875 308.242188 C 314.628906 315.0625 308.410156 321.535156 302.066406 327.753906 C 298.667969 330.988281 295.371094 334.160156 292.101562 337.269531 L 288.105469 340.601562 C 286.359375 341.933594 283.535156 344.058594 279.695312 347.011719 C 279.570312 347.167969 279.15625 347.613281 278.492188 348.34375 C 277.824219 349.074219 277.414062 349.453125 277.253906 349.453125 C 277.253906 349.738281 276.554688 350.152344 275.160156 350.660156 C 273.765625 351.199219 272.273438 351.769531 270.71875 352.4375 C 269.195312 353.101562 268.242188 353.671875 267.957031 354.117188 C 267.957031 354.117188 267.515625 354.464844 266.625 355.226562 C 266.179688 355.511719 265.355469 355.511719 264.085938 355.226562 C 262.820312 354.910156 261.835938 354.339844 261.105469 353.449219 C 260.34375 352.5625 260.4375 351.292969 261.328125 349.675781 C 261.453125 349.074219 263.007812 347.453125 265.960938 344.789062 C 266.5625 344.347656 266.5625 343.839844 265.960938 343.265625 C 265.386719 342.503906 264.183594 342.949219 262.4375 344.566406 L 259.996094 347.011719 C 259.710938 347.167969 259.359375 347.105469 258.980469 346.789062 C 258.628906 346.503906 258.375 346.121094 258.21875 345.679688 C 258.058594 345.234375 258.15625 344.789062 258.441406 344.347656 C 258.597656 344.058594 258.441406 343.773438 257.996094 343.457031 C 257.550781 343.171875 257.234375 342.757812 257.011719 342.25 C 256.789062 341.746094 257.328125 340.730469 258.664062 339.269531 C 258.664062 338.984375 258.535156 338.792969 258.3125 338.699219 C 258.121094 338.636719 257.933594 338.667969 257.773438 338.824219 L 252.886719 342.378906 C 251.871094 342.0625 251.9375 341.078125 253.109375 339.363281 C 254.316406 337.683594 255.425781 336.542969 256.441406 335.9375 C 256.726562 335.652344 257.109375 335.273438 257.550781 334.828125 C 257.550781 334.828125 257.613281 334.765625 257.773438 334.605469 C 257.933594 334.480469 257.996094 334.320312 257.996094 334.160156 C 262.722656 330.195312 265.453125 327.59375 266.179688 326.421875 C 266.339844 326.136719 266.277344 325.914062 265.960938 325.753906 C 265.832031 325.597656 265.609375 325.597656 265.292969 325.753906 C 264.722656 326.039062 264.277344 326.359375 263.992188 326.644531 C 263.832031 326.800781 263.261719 327.277344 262.3125 328.070312 C 261.359375 328.894531 260.34375 329.65625 259.328125 330.417969 C 258.28125 331.148438 257.710938 331.558594 257.550781 331.625 C 257.394531 331.6875 257.171875 331.941406 256.886719 332.386719 C 256.726562 332.703125 256.503906 332.988281 256.21875 333.273438 C 255.933594 333.589844 255.425781 333.972656 254.664062 334.511719 C 253.933594 335.019531 253.269531 334.921875 252.664062 334.160156 C 252.539062 333.875 254.792969 331.371094 259.421875 326.644531 C 264.085938 321.914062 270.402344 315.347656 278.363281 306.941406 C 286.359375 298.503906 293.148438 290.761719 298.765625 283.6875 C 298.890625 283.527344 298.988281 283.464844 298.988281 283.464844 C 297.941406 282.578125 297.113281 281.085938 296.542969 279.023438 C 296.542969 279.023438 295.972656 277.816406 294.863281 275.375 C 293.785156 272.933594 292.261719 269.792969 290.324219 265.953125 C 288.421875 262.113281 286.488281 258.65625 284.582031 255.546875 C 281.316406 250.21875 278.015625 245.363281 274.621094 240.921875 C 274.175781 240.351562 273.542969 239.492188 272.71875 238.382812 C 271.925781 237.273438 271.351562 236.574219 271.066406 236.289062 L 269.734375 234.511719 C 268.6875 232.578125 267.894531 231.246094 267.292969 230.515625 C 267.292969 230.515625 267.101562 230.355469 266.753906 230.070312 C 266.371094 229.785156 266.117188 229.628906 265.960938 229.628906 L 265.960938 229.40625 C 265.960938 229.40625 265.894531 229.085938 265.738281 228.421875 C 265.609375 227.753906 265.453125 227.058594 265.292969 226.296875 C 265.167969 225.566406 265.007812 225.121094 264.847656 224.964844 C 264.722656 224.964844 264.59375 224.898438 264.53125 224.773438 C 264.46875 224.613281 264.40625 224.550781 264.40625 224.550781 C 264.277344 224.234375 264.375 223.757812 264.753906 223.089844 C 265.132812 222.425781 265.707031 221.855469 266.53125 221.316406 C 267.324219 220.808594 268.179688 220.710938 269.070312 220.996094 C 269.355469 220.996094 270.179688 221.664062 271.511719 222.996094 C 271.671875 223.28125 272.019531 223.21875 272.621094 222.773438 C 271.890625 221.886719 271.574219 221.21875 271.734375 220.777344 C 271.734375 220.617188 271.734375 220.488281 271.734375 220.332031 C 271.449219 220.171875 271.289062 220.109375 271.289062 220.109375 C 271.003906 220.269531 270.78125 220.171875 270.625 219.886719 C 270.335938 219.285156 270.273438 218.902344 270.496094 218.683594 C 270.71875 218.460938 271.035156 218.300781 271.382812 218.238281 C 271.765625 218.140625 271.957031 218.109375 271.957031 218.109375 C 272.683594 217.667969 272.621094 217.382812 271.734375 217.222656 C 271.734375 217.222656 271.511719 217.253906 271.066406 217.347656 C 270.625 217.414062 270.148438 217.476562 269.640625 217.570312 C 269.101562 217.636719 268.78125 217.667969 268.625 217.667969 C 268.464844 217.507812 268.242188 217.382812 267.957031 217.222656 L 267.734375 217 C 267.449219 216.875 267.261719 216.683594 267.195312 216.460938 C 267.101562 216.238281 267.070312 216.046875 267.070312 215.890625 C 267.230469 215.605469 267.609375 215.320312 268.179688 215 C 268.625 214.714844 268.78125 214.335938 268.625 213.890625 C 267.894531 214.050781 267.292969 214.050781 266.847656 213.890625 C 266.402344 213.765625 266.179688 213.542969 266.179688 213.226562 C 266.179688 212.941406 266.402344 212.589844 266.847656 212.144531 C 267.449219 211.703125 268.625 211.386719 270.402344 211.257812 C 272.621094 211.097656 273.796875 211.035156 273.953125 211.035156 C 274.082031 210.71875 274.527344 210.65625 275.289062 210.8125 C 276.144531 210.8125 276.683594 210.496094 276.808594 209.925781 C 276.96875 209.609375 276.554688 209.324219 275.605469 209.039062 C 274.652344 208.75 273.574219 208.59375 272.398438 208.59375 C 270.335938 208.59375 268.625 208.972656 267.292969 209.703125 C 265.960938 210.273438 264.339844 210.273438 262.4375 209.703125 C 260.21875 208.972656 260.152344 207.863281 262.214844 206.371094 C 265.738281 204.023438 268.339844 202.820312 269.957031 202.820312 L 279.695312 202.820312 C 281.757812 202.976562 283.851562 203.421875 285.914062 204.152344 C 289.308594 205.644531 292.324219 207.863281 294.988281 210.8125 C 296.003906 211.542969 297.433594 213.160156 299.210938 215.667969 C 300.066406 216.875 301.050781 218.394531 302.066406 220.332031 C 302.382812 220.777344 302.859375 221.539062 303.523438 222.648438 C 304.191406 223.757812 304.730469 224.679688 305.171875 225.40625 C 309.742188 233.242188 314.691406 241.875 320.023438 251.328125 C 321.355469 248.664062 322.8125 245.648438 324.433594 242.253906 L 324.652344 242.699219 C 324.972656 241.96875 325.796875 239.746094 327.222656 236.066406 C 328.621094 232.355469 329.382812 230.230469 329.539062 229.628906 C 329.699219 228.898438 330.015625 228.484375 330.523438 228.421875 C 331.0625 228.328125 331.507812 228.453125 331.855469 228.738281 C 332.238281 229.023438 332.425781 229.339844 332.425781 229.628906 C 332.425781 229.785156 332.078125 230.960938 331.410156 233.179688 C 330.746094 235.402344 330.144531 237.589844 329.539062 239.8125 C 328.9375 242.03125 328.714844 243.140625 328.875 243.140625 C 329.761719 243.425781 330.902344 241.300781 332.300781 236.734375 C 333.695312 232.132812 334.332031 228.960938 334.203125 227.183594 C 334.648438 225.566406 334.710938 223.980469 334.425781 222.425781 C 334.109375 220.871094 334.011719 219.285156 334.078125 217.667969 C 334.140625 216.046875 334.648438 214.9375 335.503906 214.335938 C 335.503906 214.207031 335.664062 213.890625 335.949219 213.445312 L 336.171875 213.226562 C 336.328125 212.941406 336.550781 212.84375 336.835938 212.90625 C 337.15625 212.972656 337.535156 213.066406 338.074219 213.128906 C 338.582031 213.195312 338.929688 213.226562 339.058594 213.226562 C 339.214844 213.097656 339.28125 212.84375 339.28125 212.464844 C 339.28125 212.082031 339.3125 211.796875 339.40625 211.574219 C 339.46875 211.351562 339.789062 211.164062 340.390625 211.035156 C 341.882812 211.035156 342.230469 212.589844 341.5 215.667969 C 341.660156 216.269531 341.945312 216.492188 342.390625 216.335938 C 342.675781 216.335938 342.898438 216.207031 343.054688 215.890625 C 343.054688 215.761719 343.085938 215.253906 343.152344 214.460938 C 343.246094 213.636719 343.40625 212.75 343.722656 211.796875 C 344.007812 210.847656 344.292969 210.273438 344.609375 210.148438 C 344.894531 209.988281 345.277344 209.832031 345.71875 209.703125 L 346.164062 209.703125 C 346.734375 209.386719 347.339844 209.480469 347.910156 209.925781 C 348.070312 210.210938 348.070312 210.878906 347.910156 211.925781 C 347.910156 212.367188 348.132812 212.8125 348.574219 213.226562 L 349.019531 213.226562 C 349.464844 212.367188 349.941406 211.765625 350.480469 211.480469 C 350.988281 211.164062 351.429688 211.132812 351.8125 211.351562 C 352.160156 211.574219 352.414062 211.925781 352.574219 212.367188 C 352.730469 212.8125 352.476562 214.113281 351.8125 216.335938 C 351.144531 218.554688 351.019531 219.824219 351.464844 220.109375 C 351.621094 220.394531 351.71875 220.742188 351.8125 221.09375 C 351.875 221.472656 351.875 221.789062 351.8125 222.109375 C 351.71875 222.394531 351.75 222.648438 351.90625 222.871094 C 352.066406 223.089844 352.351562 223.21875 352.796875 223.21875 C 353.683594 223.34375 354.351562 222.171875 354.792969 219.664062 C 355.238281 217.160156 355.460938 215.320312 355.460938 214.113281 C 355.460938 212.652344 356.699219 211.480469 359.203125 210.59375 C 361.742188 209.703125 362.980469 210.273438 362.980469 212.367188 C 362.980469 213.097656 363.171875 214.273438 363.550781 215.890625 C 363.898438 217.507812 364.027344 218.492188 363.867188 218.777344 Z M 295.878906 220.777344 C 295.878906 221.0625 296.066406 221.539062 296.417969 222.203125 C 296.796875 222.871094 297.179688 223.535156 297.527344 224.203125 C 297.910156 224.867188 298.320312 225.503906 298.765625 226.074219 C 299.210938 226.675781 299.589844 227.121094 299.96875 227.40625 C 300.351562 227.722656 300.667969 227.785156 300.953125 227.628906 C 301.558594 227.183594 301.335938 226.453125 300.289062 225.40625 C 300.003906 224.964844 299.652344 224.234375 299.210938 223.21875 C 298.890625 222.011719 298.605469 221.285156 298.320312 220.996094 C 298.160156 220.839844 298.097656 220.617188 298.097656 220.332031 C 298.097656 220.046875 298.003906 219.824219 297.875 219.664062 C 297.71875 219.507812 297.496094 219.253906 297.210938 218.902344 C 296.894531 218.523438 296.671875 218.269531 296.542969 218.109375 L 295.878906 217.222656 C 295.433594 216.335938 295.054688 215.667969 294.765625 215.222656 C 294.164062 214.335938 293.210938 213.382812 291.878906 212.367188 L 289.4375 210.59375 C 288.867188 209.988281 288.421875 209.546875 288.105469 209.257812 C 288.105469 209.101562 287.882812 208.910156 287.46875 208.6875 C 287.027344 208.464844 286.707031 208.308594 286.582031 208.148438 C 285.820312 207.417969 285.027344 206.878906 284.140625 206.59375 C 283.25 206.308594 282.648438 206.4375 282.363281 207.039062 C 282.363281 207.199219 282.648438 207.449219 283.25 207.800781 C 283.851562 208.179688 284.457031 208.5625 285.121094 208.910156 C 285.789062 209.292969 286.136719 209.480469 286.136719 209.480469 C 286.421875 209.765625 286.519531 209.957031 286.453125 210.019531 C 286.390625 210.117188 286.421875 210.210938 286.582031 210.371094 C 287.3125 210.8125 288.769531 212.144531 290.992188 214.335938 C 291.753906 215.097656 292.769531 216.429688 294.101562 218.332031 L 294.324219 218.777344 C 294.925781 219.824219 295.433594 220.488281 295.878906 220.777344 Z M 300.953125 280.800781 C 301.113281 280.640625 301.335938 280.386719 301.621094 280.007812 C 301.9375 279.65625 302.160156 279.308594 302.285156 279.023438 C 302 278.136719 301.777344 277.46875 301.621094 277.023438 C 301.492188 276.867188 301.335938 276.515625 301.175781 275.914062 C 301.050781 275.34375 300.953125 274.960938 300.953125 274.804688 L 300.730469 274.582031 C 300.730469 274.011719 300.605469 273.566406 300.289062 273.25 C 300.289062 273.25 300.222656 273.027344 300.066406 272.582031 C 299.335938 271.410156 298.542969 270.234375 297.65625 269.0625 C 297.496094 269.0625 297.335938 269.125 297.210938 269.285156 C 296.609375 269.570312 296.671875 270.011719 297.433594 270.617188 C 297.71875 270.902344 297.8125 271.410156 297.75 272.171875 C 297.6875 272.898438 297.71875 273.25 297.875 273.25 C 298.003906 273.40625 298.035156 273.597656 297.972656 273.820312 C 297.910156 274.042969 297.941406 274.136719 298.097656 274.136719 C 298.097656 274.296875 298.160156 274.453125 298.320312 274.582031 C 298.449219 274.742188 298.542969 274.898438 298.542969 275.027344 L 298.765625 275.46875 C 298.890625 276.074219 298.988281 276.421875 298.988281 276.582031 C 299.113281 276.867188 299.496094 277.40625 300.066406 278.136719 C 300.382812 278.578125 300.605469 278.960938 300.730469 279.246094 C 300.890625 279.53125 300.890625 279.753906 300.730469 279.910156 C 300.730469 280.070312 300.796875 280.195312 300.859375 280.355469 C 300.921875 280.484375 300.953125 280.640625 300.953125 280.800781 Z M 358.792969 231.847656 C 360.09375 229.628906 359.964844 228.390625 358.347656 228.074219 C 358.1875 228.074219 358 228.390625 357.777344 228.960938 C 357.554688 229.5625 357.363281 230.199219 357.238281 230.863281 C 357.078125 231.5 356.921875 231.847656 356.792969 231.847656 C 356.792969 232.292969 356.632812 232.515625 356.347656 232.515625 C 356.191406 232.515625 356.125 232.515625 356.125 232.515625 C 355.078125 235.464844 354.414062 237.464844 354.128906 238.476562 C 353.84375 239.367188 353.175781 241.144531 352.128906 243.808594 L 351.90625 244.253906 C 351.175781 245.425781 350.796875 246.378906 350.796875 247.140625 C 350.667969 247.425781 350.351562 248.027344 349.910156 248.882812 C 349.464844 249.773438 349.019531 250.660156 348.574219 251.550781 C 348.132812 252.4375 347.75 253.390625 347.371094 254.4375 C 346.988281 255.484375 346.832031 256.277344 346.832031 256.878906 C 346.832031 257.449219 347.054688 257.832031 347.464844 257.988281 C 348.511719 258.117188 349.179688 257.164062 349.464844 255.101562 C 349.621094 254.5 350.226562 253.546875 351.242188 252.214844 C 352.289062 250.882812 352.796875 249.996094 352.796875 249.550781 C 352.796875 249.421875 352.984375 249.203125 353.335938 248.882812 C 353.714844 248.597656 353.90625 248.3125 353.90625 248.027344 C 354.066406 247.867188 354.160156 247.488281 354.222656 246.917969 C 354.320312 246.316406 354.351562 245.933594 354.351562 245.808594 L 355.015625 244.472656 C 355.460938 243.585938 355.808594 242.855469 356.125 242.253906 C 356.414062 241.367188 356.699219 239.96875 357.015625 238.035156 C 357.140625 237.019531 357.363281 236.066406 357.679688 235.179688 C 357.808594 234.417969 358.03125 233.910156 358.347656 233.625 C 358.476562 233.464844 358.601562 233.179688 358.664062 232.734375 C 358.726562 232.292969 358.792969 232.007812 358.792969 231.847656 Z M 358.792969 231.847656 " fill-opacity="1" fill-rule="nonzero"/><g fill="#e67f22" fill-opacity="1"><g transform="translate(41.094725, 158.593799)"><g><path d="M 8.328125 -43.691406 C 7.570312 -42.394531 6.8125 -40.988281 6.164062 -39.472656 L 5.625 -38.285156 C 4.867188 -36.660156 4.324219 -35.039062 3.894531 -33.308594 L 3.675781 -32.769531 L 2.054688 -24.765625 L 1.839844 -22.496094 L 1.839844 -21.84375 C 1.621094 -20.65625 1.621094 -19.464844 1.621094 -18.167969 L 1.621094 -16.65625 C 1.621094 -15.464844 1.621094 -14.167969 1.839844 -12.976562 L 2.054688 -11.789062 C 2.269531 -10.382812 3.136719 -7.570312 3.785156 -6.273438 L 4.433594 -4.867188 L 5.839844 -2.921875 L 8.21875 -0.863281 C 8.976562 -0.433594 9.734375 0 10.597656 0.324219 C 12.003906 1.191406 13.519531 1.839844 14.816406 2.164062 C 15.140625 2.378906 15.898438 2.488281 16.332031 2.488281 L 17.734375 2.488281 C 18.601562 2.488281 19.574219 2.269531 20.765625 1.945312 C 20.871094 1.945312 21.089844 1.839844 21.304688 1.730469 L 24.226562 0.648438 L 25.304688 0 C 26.496094 -0.539062 27.46875 -1.082031 28.550781 -2.054688 L 29.414062 -2.8125 C 29.632812 -3.027344 29.847656 -3.136719 29.957031 -3.351562 C 30.605469 -3.785156 31.144531 -4.21875 31.578125 -4.757812 L 33.09375 -5.949219 C 33.632812 -6.273438 34.066406 -6.707031 34.5 -7.136719 C 34.605469 -7.246094 34.605469 -7.355469 34.824219 -7.460938 L 35.148438 -7.894531 L 35.253906 -7.894531 C 35.582031 -8.21875 36.230469 -9.191406 36.445312 -9.625 C 36.769531 -9.949219 37.3125 -10.707031 37.417969 -11.140625 L 37.742188 -12.003906 C 37.960938 -12.21875 37.960938 -12.4375 38.066406 -12.652344 L 38.066406 -13.195312 C 38.066406 -13.300781 38.066406 -13.519531 37.960938 -13.734375 C 37.960938 -14.167969 37.851562 -14.601562 37.742188 -14.925781 L 37.3125 -15.789062 C 37.09375 -15.789062 36.984375 -15.898438 36.769531 -15.898438 C 36.445312 -15.898438 36.121094 -15.789062 35.796875 -15.679688 L 35.148438 -15.355469 C 34.5 -14.925781 33.851562 -14.492188 33.199219 -13.734375 L 31.144531 -10.597656 L 29.414062 -8.652344 L 26.820312 -6.488281 C 26.386719 -6.164062 24.65625 -5.191406 24.117188 -5.191406 C 23.359375 -4.867188 22.386719 -4.542969 21.738281 -4.542969 C 20.441406 -4.542969 18.058594 -5.949219 17.195312 -7.03125 L 16.65625 -7.679688 C 16.546875 -7.894531 16.332031 -8.109375 16.222656 -8.433594 C 15.464844 -9.300781 14.816406 -10.382812 14.167969 -11.679688 C 13.949219 -12.003906 13.625 -12.4375 13.519531 -12.871094 C 13.085938 -13.84375 12.871094 -14.925781 12.546875 -15.898438 C 12.328125 -16.332031 12.21875 -16.761719 12.113281 -17.195312 L 12.113281 -17.734375 C 12.113281 -17.953125 12.003906 -18.058594 12.003906 -18.277344 C 11.894531 -18.816406 11.894531 -19.25 11.894531 -19.683594 C 11.894531 -20.007812 12.003906 -20.222656 12.003906 -20.546875 L 12.328125 -21.84375 C 12.328125 -22.171875 12.4375 -22.496094 12.546875 -22.820312 L 13.410156 -26.605469 C 13.949219 -28.660156 14.601562 -30.714844 15.25 -32.660156 C 15.574219 -33.632812 16.113281 -34.605469 16.4375 -35.582031 L 18.492188 -40.230469 L 19.574219 -42.070312 C 19.683594 -42.175781 19.683594 -42.394531 19.789062 -42.609375 C 20.441406 -43.800781 21.089844 -44.773438 21.738281 -45.636719 C 22.386719 -46.609375 23.035156 -47.367188 23.792969 -48.125 C 24.550781 -48.773438 25.304688 -49.421875 25.957031 -49.746094 C 26.28125 -49.964844 26.710938 -50.070312 27.035156 -50.179688 L 27.578125 -50.179688 C 28.335938 -49.855469 28.660156 -48.339844 28.660156 -47.691406 L 29.632812 -47.367188 C 30.171875 -47.152344 30.714844 -47.042969 31.144531 -46.9375 C 31.144531 -46.71875 31.253906 -46.609375 31.253906 -46.609375 L 31.6875 -46.828125 C 31.796875 -46.71875 32.011719 -46.71875 32.121094 -46.71875 L 32.226562 -46.71875 C 32.550781 -46.828125 32.769531 -47.042969 32.984375 -47.152344 C 33.199219 -47.152344 33.742188 -48.773438 33.742188 -48.992188 L 34.175781 -49.640625 C 34.28125 -50.070312 34.175781 -50.503906 34.066406 -50.9375 C 33.742188 -51.910156 32.984375 -52.667969 32.011719 -53.101562 L 30.820312 -53.53125 C 30.605469 -53.53125 30.496094 -53.640625 30.28125 -53.75 L 28.875 -54.074219 C 28.117188 -54.289062 27.46875 -54.503906 26.929688 -54.503906 L 25.414062 -54.503906 C 24.980469 -54.503906 24.550781 -54.398438 24.117188 -54.398438 C 23.898438 -54.398438 23.683594 -54.289062 23.46875 -54.289062 L 22.0625 -53.964844 C 20.332031 -53.53125 18.492188 -52.882812 16.980469 -52.019531 C 15.679688 -51.371094 14.601562 -50.613281 13.625 -49.746094 L 12.21875 -48.558594 C 10.921875 -47.367188 9.839844 -45.855469 8.652344 -44.230469 Z M 8.328125 -43.691406 "/></g></g></g><g fill="#e67f22" fill-opacity="1"><g transform="translate(78.296628, 158.593799)"><g><path d="M 36.230469 12.113281 C 36.121094 12.113281 37.636719 10.816406 37.851562 10.164062 C 38.609375 8.328125 40.339844 8.976562 40.339844 6.597656 L 40.230469 6.054688 C 40.769531 4.433594 41.421875 2.164062 41.421875 0.433594 L 41.746094 0.109375 L 41.960938 -0.972656 C 41.636719 -2.164062 42.175781 -5.839844 42.175781 -7.355469 C 42.175781 -10.273438 42.070312 -12.113281 42.5 -15.25 C 42.609375 -16.222656 42.824219 -25.089844 44.015625 -25.089844 L 44.988281 -25.089844 C 46.285156 -25.089844 46.828125 -25.199219 48.015625 -26.820312 L 47.585938 -27.359375 C 48.773438 -30.066406 47.585938 -30.714844 45.855469 -30.714844 C 45.097656 -30.714844 44.339844 -30.605469 43.582031 -30.496094 C 43.582031 -32.121094 43.90625 -33.632812 43.90625 -35.253906 L 43.800781 -35.472656 C 44.230469 -38.5 44.878906 -42.609375 44.878906 -45.636719 C 44.878906 -48.125 46.070312 -51.371094 46.070312 -52.992188 C 46.070312 -54.613281 44.878906 -54.722656 44.878906 -56.234375 C 44.878906 -57.75 46.070312 -59.695312 43.476562 -59.695312 C 38.066406 -59.695312 35.90625 -33.308594 35.253906 -28.984375 C 29.632812 -28.011719 24.226562 -27.683594 18.601562 -27.359375 L 18.492188 -27.902344 C 18.492188 -30.066406 18.925781 -32.226562 19.25 -34.28125 L 18.925781 -34.714844 C 19.359375 -36.335938 19.789062 -37.960938 19.789062 -39.582031 C 19.789062 -41.203125 19.359375 -42.824219 19.140625 -44.339844 C 19.035156 -44.015625 19.25 -43.476562 18.925781 -43.476562 L 18.816406 -43.90625 C 19.574219 -48.449219 19.898438 -62.074219 12.761719 -62.074219 C 11.246094 -62.074219 11.03125 -60.347656 11.03125 -59.265625 C 11.03125 -53.425781 9.625 -46.285156 9.191406 -40.230469 C 8.867188 -36.011719 8.433594 -31.6875 8.109375 -27.46875 C 7.894531 -25.414062 6.273438 -26.171875 4.757812 -25.199219 C 4.757812 -25.414062 4.648438 -25.523438 4.542969 -25.523438 C 4 -25.523438 2.703125 -24.007812 2.488281 -23.683594 L 2.488281 -23.359375 L 2.164062 -23.574219 L 1.730469 -22.386719 L 2.703125 -21.738281 L 2.921875 -21.84375 L 4.109375 -21.304688 L 6.921875 -21.953125 L 7.679688 -21.195312 C 7.570312 -17.195312 4.976562 -1.191406 3.675781 2.8125 C 3.460938 3.351562 3.460938 3.460938 3.136719 3.785156 L 3.027344 3.894531 L 3.136719 4.109375 C 2.703125 4.433594 2.378906 4.976562 2.054688 5.40625 C 2.054688 6.488281 2.269531 8.109375 3.675781 8.109375 L 3.894531 8.003906 L 4.433594 8.003906 C 4.867188 8.542969 5.625 8.976562 6.378906 8.976562 C 9.515625 8.976562 12.546875 5.300781 12.761719 2.378906 C 16.546875 -3.460938 16.65625 -13.519531 17.628906 -20.441406 C 17.84375 -22.0625 18.601562 -22.0625 19.898438 -22.386719 C 24.65625 -23.46875 28.984375 -22.820312 33.742188 -24.117188 L 34.929688 -23.683594 C 35.363281 -23.574219 34.824219 -22.710938 34.714844 -22.277344 C 32.660156 -12.976562 32.226562 -2.8125 32.226562 6.707031 C 32.226562 8.542969 33.09375 12.21875 35.472656 12.21875 Z M 36.230469 12.113281 "/></g></g></g><g fill="#e67f22" fill-opacity="1"><g transform="translate(126.204894, 158.593799)"><g><path d="M 35.796875 -27.46875 C 35.796875 -30.605469 36.230469 -34.5 35.90625 -37.636719 C 35.6875 -39.472656 34.605469 -41.636719 34.390625 -43.476562 C 33.957031 -48.015625 34.824219 -55.480469 29.308594 -57.425781 L 25.089844 -58.183594 L 24.65625 -57.964844 L 24.007812 -58.074219 C 23.359375 -57.75 22.496094 -57.101562 22.386719 -56.34375 C 19.140625 -51.371094 15.789062 -46.285156 13.949219 -40.554688 C 12.003906 -34.5 11.246094 -24.765625 8.433594 -19.464844 C 7.894531 -18.492188 6.921875 -17.84375 5.949219 -17.734375 L 4.542969 -17.734375 C 3.894531 -17.410156 3.785156 -16.546875 3.894531 -16.003906 C 3.894531 -15.25 4.109375 -14.273438 4.757812 -13.734375 L 5.949219 -13.84375 C 4.648438 -11.355469 4 -8.542969 2.59375 -6.164062 C 1.621094 -4.542969 0 -3.460938 -0.972656 -1.515625 L -1.082031 -0.757812 C -0.648438 -0.324219 -0.214844 0.433594 -0.214844 1.082031 C 0 3.027344 -0.757812 5.191406 -0.539062 7.136719 C -0.433594 7.785156 0.214844 8.328125 0.757812 8.542969 C 2.488281 8.433594 7.136719 -1.40625 7.03125 -2.8125 C 7.785156 -4.648438 8.652344 -6.597656 10.273438 -8.003906 L 12.871094 -14.167969 C 17.085938 -15.140625 22.386719 -16.871094 26.605469 -17.304688 L 26.929688 -17.410156 C 26.386719 -13.300781 26.386719 -9.085938 26.820312 -4.976562 C 27.144531 -2.054688 28.660156 2.164062 29.632812 4.757812 C 31.144531 6.164062 34.605469 10.164062 37.203125 10.164062 L 37.527344 10.164062 C 38.390625 10.058594 38.933594 9.300781 39.90625 9.191406 L 40.554688 8.542969 C 40.769531 7.894531 41.527344 7.246094 41.421875 6.597656 C 40.769531 1.082031 38.066406 -4.109375 37.851562 -9.734375 L 37.636719 -10.164062 C 38.066406 -13.410156 36.769531 -18.601562 36.121094 -22.171875 L 36.335938 -22.171875 L 36.878906 -22.925781 C 37.636719 -23.46875 39.039062 -23.683594 39.257812 -24.765625 L 38.609375 -26.0625 C 37.851562 -25.738281 36.984375 -25.304688 36.121094 -25.199219 C 36.011719 -25.957031 35.796875 -26.710938 35.796875 -27.46875 Z M 14.492188 -19.359375 C 14.925781 -27.253906 21.089844 -38.933594 23.574219 -46.71875 C 24.332031 -44.773438 25.089844 -42.609375 25.304688 -40.445312 C 25.738281 -35.90625 24.980469 -30.605469 25.523438 -26.0625 C 25.628906 -24.980469 25.957031 -23.792969 26.171875 -22.710938 C 23.144531 -20.980469 18.058594 -19.683594 14.492188 -19.359375 Z M 14.492188 -19.359375 "/></g></g></g><g fill="#e67f22" fill-opacity="1"><g transform="translate(167.408171, 158.593799)"><g><path d="M 37.851562 0.109375 C 37.3125 -0.324219 36.984375 -1.082031 36.878906 -1.730469 C 36.660156 -2.164062 34.714844 -5.839844 35.039062 -6.164062 L 34.605469 -6.921875 L 34.714844 -7.136719 C 33.957031 -8.109375 32.769531 -9.515625 32.445312 -10.597656 C 31.46875 -11.679688 30.605469 -12.652344 29.847656 -13.84375 C 29.847656 -14.925781 28.550781 -15.25 28.335938 -16.222656 C 26.929688 -22.0625 26.386719 -21.195312 25.628906 -27.359375 C 27.144531 -28.335938 28.550781 -29.523438 30.066406 -30.390625 C 34.175781 -36.554688 37.851562 -38.609375 37.851562 -46.9375 C 37.851562 -48.664062 37.203125 -50.722656 35.90625 -52.019531 C 34.066406 -52.882812 34.066406 -57.101562 27.035156 -57.101562 C 26.28125 -57.101562 25.628906 -57.101562 24.875 -57.316406 C 23.359375 -56.234375 21.628906 -55.261719 20.546875 -53.640625 C 18.167969 -52.992188 17.628906 -51.046875 16.113281 -49.53125 C 15.898438 -50.070312 15.789062 -50.722656 15.898438 -51.261719 C 14.925781 -53.207031 13.195312 -54.289062 11.140625 -54.9375 L 10.273438 -54.722656 L 10.488281 -55.15625 L 10.382812 -55.15625 C 8.761719 -55.15625 5.082031 -53.75 5.082031 -51.695312 C 4.433594 -51.585938 4 -51.046875 4 -50.394531 C 4 -49.964844 4.21875 -49.53125 4.324219 -49.097656 C 4.21875 -48.558594 4.648438 -47.152344 4.757812 -46.503906 L 4.542969 -45.421875 C 4.648438 -44.988281 4.867188 -44.339844 4.867188 -43.90625 C 4.867188 -42.933594 4.324219 -42.070312 4.21875 -41.09375 C 3.785156 -36.554688 4 -31.363281 3.894531 -26.820312 C 3.675781 -18.601562 1.945312 -10.707031 1.945312 -2.59375 C 1.945312 -1.191406 3.894531 3.246094 5.515625 3.246094 C 6.378906 3.246094 7.136719 2.378906 7.894531 2.054688 C 8.433594 2.269531 9.300781 2.488281 10.164062 2.488281 C 11.679688 2.488281 13.195312 1.945312 13.195312 0.433594 C 12.871094 -0.324219 12.4375 -1.191406 12.4375 -2.054688 C 12.4375 -4.433594 14.382812 -9.949219 14.925781 -12.328125 C 15.355469 -13.949219 14.273438 -21.089844 17.085938 -21.089844 L 17.628906 -20.980469 L 18.277344 -20.117188 L 18.167969 -19.898438 C 18.058594 -17.734375 23.035156 -9.300781 24.007812 -7.136719 C 26.0625 -2.59375 30.605469 12.328125 37.851562 12.328125 C 40.445312 12.328125 41.3125 9.839844 41.3125 7.570312 C 40.988281 7.03125 40.554688 6.164062 40.445312 5.515625 C 40.339844 5.730469 40.015625 5.839844 40.015625 5.40625 L 40.121094 5.40625 L 38.933594 3.351562 L 39.039062 3.246094 C 38.933594 3.136719 38.609375 2.59375 38.609375 2.378906 C 38.609375 0.972656 37.742188 1.191406 37.742188 0.214844 Z M 27.683594 -47.042969 C 27.683594 -40.554688 24.007812 -30.171875 17.195312 -27.902344 L 16.65625 -29.199219 C 16.546875 -29.199219 16.222656 -28.984375 16.332031 -28.875 C 15.25 -28.984375 14.601562 -29.523438 14.601562 -30.605469 C 14.601562 -38.714844 14.167969 -50.070312 25.414062 -50.070312 C 27.359375 -50.070312 27.683594 -48.773438 27.683594 -47.042969 Z M 27.683594 -47.042969 "/></g></g></g><g fill="#e67f22" fill-opacity="1"><g transform="translate(205.583377, 158.593799)"><g><path d="M 46.609375 -8.976562 C 46.609375 -10.058594 46.828125 -11.679688 46.828125 -12.871094 C 46.71875 -13.300781 46.609375 -13.734375 46.609375 -14.167969 L 46.394531 -14.167969 C 46.179688 -14.707031 45.960938 -15.464844 45.855469 -16.113281 C 45.855469 -16.546875 45.855469 -16.980469 45.960938 -17.410156 C 46.070312 -17.84375 46.394531 -17.734375 46.503906 -17.953125 L 46.503906 -24.007812 C 46.394531 -24.441406 46.394531 -24.980469 46.394531 -25.414062 C 46.394531 -28.984375 46.503906 -32.550781 46.394531 -36.011719 L 46.285156 -36.011719 C 46.285156 -36.121094 46.285156 -36.230469 46.394531 -36.335938 L 46.394531 -36.554688 C 46.285156 -37.851562 46.179688 -39.257812 46.179688 -40.121094 C 46.179688 -41.527344 46.179688 -43.042969 45.855469 -44.664062 C 45.855469 -45.207031 45.746094 -45.746094 45.746094 -46.285156 C 45.636719 -46.9375 45.421875 -47.585938 45.207031 -48.234375 C 44.878906 -48.992188 44.449219 -49.640625 43.800781 -50.179688 C 43.152344 -50.828125 42.285156 -51.261719 41.203125 -51.371094 C 41.09375 -51.476562 40.878906 -51.476562 40.769531 -51.476562 C 40.664062 -51.476562 40.554688 -51.476562 40.445312 -51.371094 C 40.121094 -51.371094 39.90625 -51.261719 39.691406 -51.046875 C 38.933594 -50.613281 38.175781 -49.640625 37.417969 -48.449219 L 36.769531 -47.476562 C 36.121094 -46.394531 35.363281 -45.3125 34.714844 -44.015625 L 34.28125 -43.152344 C 33.957031 -42.609375 33.632812 -42.070312 33.417969 -41.527344 L 31.253906 -37.3125 L 29.742188 -33.957031 C 29.414062 -33.527344 29.199219 -32.875 28.875 -32.445312 C 28.117188 -30.929688 27.46875 -29.523438 27.035156 -28.335938 C 26.929688 -28.226562 26.929688 -28.011719 26.820312 -27.792969 C 26.496094 -26.929688 26.386719 -25.957031 26.0625 -24.980469 C 25.847656 -24.441406 25.738281 -23.898438 25.304688 -23.574219 L 24.765625 -25.738281 C 24.226562 -27.359375 23.574219 -28.984375 23.035156 -30.496094 C 22.710938 -31.46875 22.277344 -32.335938 21.953125 -33.199219 L 20.980469 -35.582031 C 20.765625 -36.121094 20.546875 -36.554688 20.441406 -37.09375 L 19.683594 -38.714844 C 19.683594 -38.933594 19.574219 -39.148438 19.464844 -39.257812 C 18.058594 -43.152344 15.789062 -48.882812 13.519531 -52.234375 C 12.113281 -54.074219 10.707031 -54.9375 8.328125 -54.9375 C 8.109375 -54.832031 7.894531 -54.613281 7.894531 -54.289062 C 7.785156 -54.179688 7.570312 -54.179688 7.460938 -54.179688 C 7.03125 -54.179688 6.707031 -53.964844 6.488281 -53.640625 C 6.378906 -53.425781 6.378906 -53.207031 6.378906 -52.992188 L 5.839844 -49.207031 C 5.730469 -48.234375 5.625 -47.152344 5.625 -46.070312 C 5.515625 -45.3125 5.515625 -44.554688 5.515625 -43.800781 C 5.515625 -42.71875 5.40625 -41.636719 5.300781 -40.554688 L 5.300781 -39.039062 C 5.300781 -38.609375 5.191406 -38.175781 5.191406 -37.742188 C 5.191406 -36.878906 5.082031 -36.230469 5.082031 -35.472656 L 5.082031 -35.253906 C 4.976562 -31.902344 4.324219 -28.550781 4.109375 -25.523438 C 4.21875 -25.089844 4.21875 -24.550781 4.21875 -24.007812 C 4.21875 -23.898438 4.109375 -23.683594 4 -23.359375 C 4 -23.035156 4 -22.601562 3.894531 -22.171875 L 3.894531 -21.519531 C 3.675781 -21.089844 3.570312 -20.546875 3.570312 -19.898438 C 3.351562 -18.925781 3.351562 -17.953125 3.136719 -16.871094 L 2.703125 -12.976562 C 2.703125 -12.761719 2.59375 -12.4375 2.59375 -12.113281 C 2.378906 -9.625 2.269531 -7.355469 2.269531 -4.976562 C 2.488281 -4 2.921875 -3.246094 3.675781 -2.378906 C 3.675781 -1.730469 3.785156 -1.191406 3.785156 -0.648438 C 3.894531 -0.433594 3.894531 0 4 0.109375 C 4.433594 1.296875 5.300781 1.945312 6.488281 2.378906 C 6.921875 2.488281 7.460938 2.59375 8.003906 2.59375 C 8.109375 2.703125 8.328125 2.8125 8.652344 2.8125 C 8.867188 2.8125 9.300781 2.488281 9.625 2.054688 C 9.734375 1.945312 9.839844 1.839844 9.839844 1.730469 C 10.164062 1.296875 10.488281 0.757812 10.707031 0.214844 C 11.03125 -0.539062 11.246094 -1.40625 11.464844 -1.945312 C 11.464844 -2.488281 11.679688 -3.136719 11.679688 -3.785156 C 11.789062 -4.324219 11.894531 -4.867188 11.894531 -5.515625 C 12.003906 -7.460938 12.003906 -9.625 12.003906 -11.570312 L 12.003906 -17.734375 L 12.546875 -20.871094 L 12.761719 -22.710938 C 12.761719 -23.035156 12.976562 -23.46875 12.976562 -23.898438 L 13.734375 -28.765625 C 13.949219 -29.957031 13.949219 -31.144531 14.058594 -32.335938 L 18.277344 -22.601562 C 18.925781 -21.089844 19.464844 -19.683594 20.117188 -18.386719 C 20.546875 -17.304688 20.871094 -16.332031 20.980469 -15.574219 C 20.980469 -15.355469 20.980469 -15.140625 21.089844 -15.03125 C 20.65625 -13.734375 21.738281 -12.4375 23.035156 -12.003906 C 23.359375 -11.894531 23.792969 -11.789062 24.117188 -11.789062 C 24.332031 -11.570312 24.441406 -11.355469 24.65625 -11.246094 C 24.875 -11.03125 25.089844 -10.921875 25.304688 -10.921875 C 25.523438 -10.816406 25.738281 -10.816406 26.0625 -10.816406 C 26.386719 -11.03125 26.710938 -11.355469 27.035156 -11.894531 L 27.902344 -13.949219 C 28.984375 -16.003906 30.066406 -18.492188 31.253906 -21.089844 L 32.550781 -24.007812 C 33.308594 -25.847656 34.28125 -27.683594 35.039062 -29.308594 C 35.253906 -30.066406 35.6875 -30.714844 35.90625 -31.253906 L 37.203125 -34.066406 C 37.3125 -33.742188 37.417969 -33.527344 37.417969 -33.199219 C 37.417969 -32.769531 37.3125 -32.335938 37.3125 -31.902344 L 36.445312 -25.957031 C 36.445312 -25.523438 36.445312 -24.980469 36.335938 -24.441406 L 36.011719 -20.65625 C 35.796875 -17.84375 35.582031 -14.492188 35.796875 -11.246094 C 35.796875 -10.921875 35.796875 -10.488281 35.90625 -10.058594 C 35.90625 -6.8125 36.445312 -2.921875 38.609375 -0.433594 C 39.039062 0 39.582031 0.324219 40.230469 0.324219 C 40.339844 0.324219 40.445312 0.214844 40.554688 0.214844 C 40.878906 0.972656 41.746094 1.839844 42.609375 1.839844 C 42.933594 1.945312 43.367188 1.730469 43.800781 1.40625 C 44.449219 0.972656 44.878906 0.324219 45.207031 0 C 45.960938 -0.109375 46.609375 -1.082031 46.828125 -1.839844 C 46.609375 -2.378906 46.394531 -3.027344 46.285156 -3.570312 C 46.285156 -3.894531 46.394531 -4.21875 46.394531 -4.542969 L 46.609375 -6.054688 L 46.609375 -6.8125 C 46.609375 -7.246094 46.503906 -7.894531 46.609375 -8.21875 Z M 46.609375 -8.976562 "/></g></g></g><g fill="#e67f22" fill-opacity="1"><g transform="translate(257.60114, 158.593799)"><g><path d="M 17.085938 -45.097656 C 17.085938 -49.097656 15.898438 -58.183594 10.273438 -58.183594 C 9.839844 -58.183594 9.191406 -57.964844 9.191406 -57.425781 C 9.085938 -57.535156 8.867188 -57.535156 8.761719 -57.535156 C 5.839844 -57.535156 5.625 -43.042969 5.625 -42.609375 C 5.515625 -41.636719 5.730469 -40.554688 5.300781 -39.582031 C 5.300781 -39.257812 5.191406 -38.933594 5.191406 -38.609375 C 5.191406 -28.660156 2.59375 -18.710938 2.59375 -9.300781 C 2.59375 -7.246094 1.621094 -5.300781 1.621094 -3.136719 C 1.621094 -2.703125 1.621094 -2.269531 1.730469 -1.945312 L 2.054688 -1.515625 C 2.269531 -0.433594 4 1.191406 4.867188 1.945312 C 5.082031 1.945312 6.8125 2.8125 7.03125 2.8125 C 7.246094 3.027344 7.355469 3.136719 7.570312 3.136719 C 8.867188 3.136719 10.816406 -0.757812 10.816406 -7.460938 C 10.816406 -14.058594 13.625 -21.304688 14.601562 -27.902344 C 14.382812 -28.011719 14.601562 -28.335938 14.707031 -28.441406 C 14.816406 -32.121094 16.113281 -36.230469 16.113281 -37.417969 C 16.113281 -38.175781 16.003906 -38.824219 15.898438 -39.582031 L 16.003906 -39.582031 L 15.898438 -39.796875 C 16.65625 -41.3125 17.085938 -43.476562 17.085938 -45.097656 Z M 17.085938 -45.097656 "/></g></g></g><g fill="#e67f22" fill-opacity="1"><g transform="translate(275.985784, 158.593799)"><g><path d="M 35.148438 -56.5625 C 34.714844 -55.261719 30.28125 -22.925781 30.28125 -19.898438 C 30.28125 -19.140625 30.605469 -18.167969 30.28125 -17.410156 C 29.414062 -19.140625 28.875 -20.65625 27.683594 -22.277344 C 23.359375 -28.550781 16.003906 -45.636719 12.976562 -53.425781 C 11.789062 -56.453125 8.328125 -59.046875 4.976562 -59.046875 C 2.164062 -59.046875 2.8125 -44.988281 2.8125 -42.5 C 2.8125 -31.144531 2.269531 -19.898438 2.269531 -8.542969 C 2.269531 -2.703125 2.59375 3.675781 9.949219 3.675781 C 11.140625 3.675781 12.003906 1.082031 12.21875 0.109375 C 11.894531 -0.757812 12.4375 -1.515625 12.976562 -2.054688 C 13.085938 -2.488281 13.410156 -3.246094 13.410156 -3.675781 L 13.410156 -22.710938 C 13.410156 -26.929688 13.949219 -31.144531 13.949219 -35.363281 C 14.382812 -34.605469 14.816406 -33.851562 15.140625 -33.09375 C 18.925781 -24.65625 23.144531 -16.113281 27.46875 -8.003906 C 28.011719 -2.8125 29.742188 2.703125 34.605469 5.40625 C 34.714844 5.300781 34.929688 5.300781 35.148438 5.300781 L 36.230469 5.839844 C 38.933594 5.839844 38.175781 2.59375 39.796875 1.839844 L 40.878906 -0.539062 C 40.878906 -1.40625 41.09375 -2.378906 41.09375 -3.246094 C 41.09375 -7.785156 42.070312 -12.976562 42.070312 -16.65625 L 42.070312 -17.410156 C 42.175781 -17.304688 41.851562 -17.628906 41.851562 -17.734375 C 42.070312 -18.386719 42.394531 -19.140625 42.71875 -19.789062 C 42.609375 -22.0625 42.933594 -24.765625 43.367188 -27.035156 C 43.042969 -27.683594 43.90625 -35.039062 43.90625 -36.660156 C 43.90625 -41.421875 44.664062 -58.617188 37.09375 -58.617188 C 35.90625 -58.617188 35.472656 -57.535156 35.148438 -56.5625 Z M 35.148438 -56.5625 "/></g></g></g><g fill="#e67f22" fill-opacity="1"><g transform="translate(322.163738, 158.593799)"><g><path d="M 32.660156 -40.554688 C 34.714844 -40.554688 36.011719 -40.664062 37.527344 -42.175781 L 37.636719 -42.5 C 38.175781 -43.042969 38.5 -43.90625 38.5 -44.664062 C 38.5 -53.101562 32.226562 -55.585938 24.65625 -55.585938 C 17.519531 -55.585938 13.734375 -51.046875 9.625 -45.855469 L 9.625 -45.636719 C 5.40625 -36.660156 1.730469 -29.199219 1.730469 -18.710938 C 1.730469 -7.785156 4 2.269531 16.871094 2.269531 C 22.386719 2.269531 23.25 -1.296875 27.035156 -4.433594 C 27.46875 -2.59375 28.660156 0.539062 30.929688 0.539062 C 33.199219 0.539062 36.230469 -1.621094 38.066406 -2.8125 C 37.527344 -7.570312 41.203125 -13.84375 41.203125 -18.816406 C 41.203125 -20.441406 40.445312 -21.304688 39.796875 -22.601562 C 39.796875 -23.898438 38.5 -25.628906 37.09375 -25.628906 C 33.851562 -25.628906 26.820312 -23.683594 26.820312 -19.464844 C 26.820312 -17.953125 27.144531 -16.332031 27.253906 -14.816406 C 27.359375 -13.625 26.605469 -12.21875 26.605469 -10.921875 C 25.414062 -8.976562 21.519531 -4.324219 18.816406 -4.324219 C 16.113281 -4.324219 13.519531 -11.246094 13.519531 -13.519531 L 13.734375 -13.625 C 13.734375 -13.625 13.734375 -14.058594 13.625 -14.058594 C 12.871094 -14.058594 13.085938 -18.277344 13.085938 -18.816406 C 13.085938 -25.414062 17.84375 -49.097656 26.386719 -49.097656 C 27.902344 -49.097656 31.253906 -46.503906 31.253906 -44.878906 C 31.253906 -43.691406 30.929688 -41.851562 30.390625 -40.878906 C 31.144531 -40.664062 31.902344 -40.554688 32.660156 -40.554688 Z M 32.660156 -40.554688 "/></g></g></g></svg>